<svg xmlns="http://www.w3.org/2000/svg" width="100%" height="100%" viewBox="0 0 1300 1500" fill-rule="evenodd" stroke-linejoin="round" stroke-miterlimit="2" xmlns:v="https://vecta.io/nano"><style><![CDATA[.B{fill-rule:nonzero}.C{fill:#9b9da0}.D{fill:#8b8d90}.E{fill:#808285}.F{fill:#fff}.G{fill:#00bdf2}.H{fill:#58595b}]]></style><path d="M227.174 778.916v185.663l-9.692-1.75V778.337L.016 765.258h0l227.159 13.658z" class="E"/><g class="D"><path d="M222.333 578.912l-105.45 6.342L.016 592.283V424.157l222.317-40.104v194.858z"/><path d="M222.333 773.77h0l-105.446-6.342L.016 760.399V592.283l116.867-7.029 105.45-6.342V773.77z"/><path d="M116.887 767.429l105.446 6.342v194.854L.016 928.52V760.404l116.871 7.025z"/><path d="M222.333 968.625v194.858L.016 1096.646V928.525l222.317 40.104v-.004zM718.737 39.953l30.825 17.796v231.2l-263.617 47.554V109.945l232.792-69.992zm530.338 1113.888l-235.9-42.55V821.324l263.617 15.85v300.663l-27.717 16.004z"/><path d="M718.733 39.957L485.945 109.94v-15.5L649.525-.001l69.208 39.958zM222.329 246.636v137.421L.008 424.162v-49.167l222.321-128.358z"/><path d="M222.333 246.636l207.588-119.85 56.025-16.846v226.563l-263.617 47.554h0 .004V246.636zm527.23-188.883l263.617 152.2v31.442l-263.617 47.554V57.753z"/><path d="M1054.671 233.911l222.121 128.242v153.354l-263.617 15.854V241.395l41.496-7.483zM886.526 1363.175l-136.967 79.079.004-.004V1322l136.963 41.175zm-664.197-199.692v89.863L.025 1124.996v-28.346l222.304 66.833z"/><path d="M222.329 1163.483h0l263.617 79.258h0v162.804h0l-263.617-152.2h.004v-89.863h-.004z"/><path d="M485.946 1405.546v-162.804L749.559 1322v120.254L649.542 1500l-163.596-94.454z"/></g><path d="M1018.029 235.599l30.146-5.442 12.996 7.504-43.142 7.783v280.771l253.921-15.271V359.353l9.692 5.596V520.07l-273.304 16.433V247.195l9.692-1.75v-9.846z" class="E"/><g class="D"><path d="M749.559 1322v-258.263l263.617 47.554v178.758l-126.65 73.125L749.563 1322h-.004z"/><path d="M1249.075 1153.841l-235.9 136.2v-178.75l235.9 42.55z"/></g><g class="E"><path d="M744.717 1315.479v-257.546l273.313 49.304v180l-9.696 5.6v-177.496l-253.929-45.808v248.859l72.863 21.904-76.217-22.913-6.333-1.904zm-527.234-148.392L.008 1101.7v-10.125l227.167 68.304h0l-9.692-2.913v10.121z"/><path d="M227.175 1159.879l263.621 79.254h0l-9.696-2.917v166.542h0v-156.413l-253.925-76.338v-10.129zm527.229 168.638h0 0v110.929l-9.688 5.596v-119.438l9.688 2.913z"/><path d="M751.05 1317.383l76.217 22.913 65.017 19.546-11.533 6.658-126.346-37.983v-10.125l-3.354-1.008zM481.1 106.341v-9.104l9.692-5.596v11.788l222.179-66.8 11.521 6.65-233.696 70.267v-10.121l-9.696 2.917zm9.696 1132.792v10.129l-.004-.004v159.096l-9.692-5.596v-166.542l9.696 2.917zm-263.621-79.254v10.129h0v86.146l-9.692-5.596v-83.467-.004-10.121l9.692 2.913zm781.163-912.684l-263.621 47.55V54.957l9.688 5.592v222.6l253.929-45.804v-30.188l9.696 5.596v22.846l-9.692 1.746v9.85z"/><path d="M481.1 116.461l9.696-2.917v227.009l-263.621 47.55v-9.846L481.1 332.453V116.457l-69.463 20.888 36.567-21.113 32.896-9.892v10.121z"/><path d="M217.483 389.849l9.692-1.746v.004L.008 429.087v-9.846l217.475-39.238v9.846z"/><path d="M227.175 378.257h0v9.846l-9.692 1.746v-9.846h0V249.436l9.692-5.596v134.417zm517.542 937.222v129.563h-.004v-119.438l-253.917-76.342v-10.129l253.921 76.346z"/></g><path d="M536.616 1434.808c8.754-8.067 15.975-14.971 27.075-25.738l1.563-1.513 2.179.158 59.992 4.004c23.279-5.842 35.188-9.038 58.213-15.646l30.633-48.529a4.88 4.88 0 0 1 6.675-1.563 4.85 4.85 0 0 1 1.563 6.671l-31.704 50.2-.996 1.533-1.754.5c-24.538 7.063-36.508 10.279-60.983 16.421l-.717.179-.742-.046-58.746-3.892-23.458 22.333-8.792-5.075zM308.933 1303.35c19-14.792 30.792-24.504 52.192-42.825l2.892-2.471 3.088 2.213 60.908 44.633 1.021 1.029 29.021 40.458c1.55 2.179 1.038 5.208-1.15 6.758a4.82 4.82 0 0 1-2.796.892 4.83 4.83 0 0 1-3.954-2.046l-28.529-39.767-57.092-41.871c-18.604 15.896-30.008 25.296-46.542 38.225l-9.058-5.229zm919.25-969.268l20.683 28.225c1.571 2.167 1.1 5.192-1.071 6.771a4.85 4.85 0 0 1-6.767-1.075l-28.192-38.358-55.508-23.617-58.808 107.542-.596 1.058-1.017.654-40.608 25.721a4.83 4.83 0 0 1-2.563.733c-1.613 0-3.192-.808-4.108-2.279-1.421-2.267-.729-5.258 1.542-6.679l39.483-24.992 60.196-110.196 2.071-3.863 4.046 1.667 15.121 6.3 56.096 32.388zM166.924 278.628l30.067 37.767a4.85 4.85 0 0 1-.85 6.8 4.86 4.86 0 0 1-6.8-.846l-30.421-38.221-1.204-.179 9.208-5.321zM818.912 97.791l8.679 5.008-34.071 33.967c-1.917 1.867-4.971 1.858-6.854-.058a4.84 4.84 0 0 1 .058-6.85l32.188-32.067z" class="C"/><path d="M1242.575 1157.6l-234.238-42.263V816.179l273.304 16.438v302.429l-9.692 5.596V841.737l-253.921-15.271v280.771l237.546 42.854-13 7.508z" class="E"/><path d="M749.563 1322h0-.004 0 .004z" class="H"/><path d="M.016 755.554l60.933 3.663 156.533 9.417v-.004l9.692.583v9.704L.016 765.258v-9.704zM712.975 36.628l11.525 6.654-233.709 70.263v217.163L744.712 284.9V54.953l9.692 5.596v232.45l-273.304 49.3V106.341l231.875-69.713z" class="E"/><path d="M.016 514.516l37.942 3.8c23.238-24.613 35.163-37.733 59.067-64.946l1.767-2.013 2.65.425 59.154 10.288 30.046-18.096c2.288-1.4 5.267-.675 6.663 1.608a4.85 4.85 0 0 1-1.608 6.663l-31.725 19.092-1.567.925-1.792-.329-58.079-10.154c-23.371 26.588-35.342 39.713-59.179 64.938l-1.65 1.746-2.388-.258-39.3-3.954v-9.733zm0 104.808l40.146 2.688 61.192 8.375 1.625.238 1.142 1.167c24.054 24.538 36.025 37.242 59.638 63.317l29.692 1.7a4.84 4.84 0 0 1 4.55 5.117 4.84 4.84 0 0 1-4.829 4.563c-.096 0-.188-.004-.288-.008l-33.642-1.921-1.333-1.475c-24.017-26.538-35.938-39.217-59.558-63.338l-59.146-8.096-39.188-2.608v-9.717zm0 208.925l38.071-14.158 1.246-.296 60.75-6.808 1.413-.171 1.279.621 60.95 30.5 1.171.608.7 1.121 31.708 51.233a4.85 4.85 0 0 1-1.621 6.663c-.783.475-1.654.7-2.513.7-1.638 0-3.233-.829-4.146-2.329l-30.925-49.988-58.271-29.163-58.858 6.583L.899 838.237l-.883.225v-10.213zm0 235.93c14.058-9.467 21.967-15.05 36.954-25.988l1.358-.983 1.675.058 60.196 1.604c23.4-4.938 35.313-7.65 58.604-13.408l30.575-37.429c1.667-2.075 4.717-2.417 6.813-.758a4.85 4.85 0 0 1 .758 6.813l-31.738 38.817-1.017 1.208-1.533.379c-24.625 6.096-36.596 8.829-61 13.979l-.533.117-.55-.013-59.25-1.563c-15.4 11.225-23.396 16.829-39.354 27.579-.604.408-1.271.658-1.958.713v-11.125z" class="C"/><g class="E"><path d="M227.174 974.429v195.579L.016 1101.704v-10.125l217.467 65.388V972.683L.016 933.454v-.008l227.159 40.983zm0-400.663l-9.692.583V389.853L.016 429.087v-9.846l227.159-40.979v195.504z"/><path d="M227.174 583.478l-9.692.579h0l-87.667 5.271-129.8 7.804v-9.704l217.467-13.075v-.004l9.692-.583v9.713zm0 390.951L.016 933.445v-9.85l217.467 39.233h0l9.692 1.75v9.85zm.001-781.629v51.042h0V192.8h0z"/></g><g class="B C"><path d="M24.619 392.263c-3.767.754-6.829 3.342-6.829 5.775s3.063 3.817 6.829 3.088 6.829-3.317 6.829-5.771-3.063-3.846-6.829-3.092m32.446-6.48c-3.767.754-6.829 3.383-6.829 5.875s3.063 3.921 6.829 3.192 6.829-3.363 6.829-5.875-3.063-3.942-6.829-3.192m64.889-12.958c-3.767.754-6.829 3.475-6.829 6.075s3.063 4.121 6.829 3.392 6.829-3.45 6.829-6.075-3.058-4.146-6.829-3.392m32.448-6.479c-3.767.754-6.833 3.525-6.833 6.179s3.067 4.221 6.833 3.492 6.829-3.496 6.829-6.179-3.063-4.242-6.829-3.492m32.443-6.478c-3.771.754-6.829 3.567-6.829 6.279s3.058 4.321 6.829 3.596c3.767-.733 6.825-3.542 6.825-6.279s-3.058-4.35-6.825-3.596"/><path d="M89.508 379.305c-3.767.754-6.829 3.429-6.829 5.975s3.063 4.021 6.829 3.292 6.833-3.408 6.833-5.975-3.067-4.046-6.833-3.292m173.384-60.063c-1.679 0-3.304-.871-4.204-2.429a4.84 4.84 0 0 1 1.788-6.617l39.633-23.121 60.175-85.254 1.654-2.417 2.908.346 60.963 8.017 1.263.179 1.013.783 29.071 23.046c2.079 1.683 2.4 4.733.717 6.813s-4.738 2.404-6.813.721l-27.908-22.138-56.533-7.454-59.258 83.863-1.446 1.321-40.613 23.7c-.758.433-1.588.642-2.408.642"/></g><path d="M315.686 289.006c.001 5.297-5.491 10.801-12.266 12.294s-12.272-1.528-12.273-6.748 5.496-10.725 12.271-12.295 12.268 1.452 12.269 6.749" class="B D"/><path d="M306.934 285.475a11.8 11.8 0 0 0-2.696.325c-5.571 1.292-9.458 5.65-9.458 8.754 0 .954.363 1.704 1.104 2.3 1.433 1.163 4.008 1.496 6.754.9 5.546-1.225 9.413-5.592 9.413-8.746 0-1-.371-1.783-1.129-2.383-.954-.758-2.358-1.15-3.988-1.15m-6.904 19.846c-3.367 0-6.413-.958-8.7-2.8-2.463-1.979-3.817-4.808-3.817-7.967 0-6.921 6.625-13.875 15.088-15.838 4.929-1.133 9.629-.338 12.842 2.217 2.5 1.988 3.875 4.854 3.875 8.075 0 7.017-6.638 13.975-15.113 15.846-1.425.313-2.825.467-4.175.467" class="B C"/><path d="M376.546 202.347c-.001 5.486-5.493 11.374-12.266 13.14-6.776 1.775-12.274-1.177-12.273-6.585s5.497-11.293 12.274-13.142c6.774-1.844 12.267 1.105 12.265 6.587" class="B D"/><path d="M368.217 198.842c-.929 0-1.938.142-2.983.425-5.65 1.546-9.588 6.317-9.588 9.638 0 1.046.375 1.842 1.142 2.438 1.421 1.1 3.892 1.325 6.571.629 5.633-1.471 9.554-6.25 9.554-9.625 0-1.092-.379-1.908-1.163-2.513-.858-.654-2.1-.992-3.533-.992m-7.767 20.796c-3.108 0-5.933-.863-8.104-2.546-2.554-1.975-3.967-4.883-3.967-8.188 0-7.046 6.563-14.358 14.946-16.65 4.9-1.333 9.583-.683 12.838 1.808 2.592 1.979 4.021 4.921 4.021 8.283 0 7.15-6.583 14.463-14.988 16.658-1.621.425-3.217.633-4.746.633" class="B C"/><path d="M436.923 209.49c.002 5.67-5.493 11.634-12.265 13.322-6.777 1.685-12.273-1.483-12.27-7.081 0-5.594 5.495-11.557 12.27-13.319s12.267 1.407 12.265 7.078" class="B D"/><g class="C B"><path d="M428.313 205.563a10.96 10.96 0 0 0-2.738.367c-5.088 1.325-9.554 5.908-9.554 9.804 0 1.188.438 2.129 1.292 2.8 1.438 1.121 3.85 1.4 6.471.754 5.063-1.258 9.504-5.838 9.504-9.792 0-1.238-.442-2.2-1.321-2.879-.896-.696-2.183-1.054-3.654-1.054m-7.2 21.338c-3.158 0-6.046-.9-8.275-2.642-2.629-2.058-4.083-5.088-4.083-8.525 0-7.254 6.583-14.654 14.992-16.833 4.788-1.263 9.425-.546 12.667 1.963 2.675 2.071 4.146 5.133 4.146 8.633 0 7.35-6.596 14.754-15.025 16.846a18.31 18.31 0 0 1-4.421.558m-163.292 95.815c-3.771.804-6.838 3.763-6.838 6.596s3.067 4.508 6.838 3.725 6.829-3.742 6.829-6.6-3.063-4.525-6.829-3.721"/><path d="M257.822 298.212c-3.771.863-6.838 3.863-6.838 6.696s3.067 4.454 6.838 3.621c3.767-.842 6.829-3.838 6.829-6.696s-3.063-4.483-6.829-3.621m0-24.51c-3.771.917-6.838 3.963-6.838 6.796s3.067 4.413 6.838 3.521 6.829-3.942 6.829-6.8-3.063-4.433-6.829-3.517m30.412 65.918c-3.767.754-6.829 3.708-6.829 6.596s3.063 4.638 6.829 3.908 6.829-3.683 6.829-6.596-3.063-4.663-6.829-3.908m32.449-6.48c-3.771.754-6.829 3.754-6.829 6.696s3.058 4.742 6.829 4.013 6.829-3.729 6.829-6.696-3.063-4.767-6.829-4.013m64.888-12.957c-3.767.754-6.829 3.842-6.829 6.896s3.063 4.942 6.829 4.217 6.829-3.821 6.829-6.9-3.063-4.967-6.829-4.213m32.446-6.48c-3.767.754-6.833 3.892-6.833 7s3.067 5.042 6.833 4.313 6.829-3.863 6.829-6.996-3.063-5.071-6.829-4.317m32.442-6.478c-3.767.754-6.829 3.933-6.829 7.1s3.063 5.142 6.829 4.417c3.767-.733 6.829-3.913 6.829-7.1s-3.063-5.171-6.829-4.417m-192.637-58.032c-3.771.971-6.838 4.071-6.838 6.904s3.067 4.367 6.838 3.417 6.829-4.042 6.829-6.9-3.063-4.392-6.829-3.421m95.301 77.469c-3.767.754-6.829 3.8-6.829 6.796s3.063 4.842 6.829 4.113 6.833-3.775 6.833-6.8-3.067-4.863-6.833-4.108m173.373-28.229c-.917 0-1.838-.258-2.663-.8-2.233-1.475-2.85-4.483-1.379-6.717l40.521-62.538.692-1.088 1.146-.596 60.325-32.258 59.613-51.892 31.225-68.213c1.104-2.454 3.963-3.521 6.417-2.425a4.86 4.86 0 0 1 2.421 6.408l-31.696 69.221-1.175 1.583-60.908 53.025-.821.563-59.75 31.967-39.917 61.583c-.929 1.408-2.475 2.175-4.05 2.175"/></g><path d="M579.304 229.422c-.002 6.113-5.492 12.275-12.267 13.768s-12.272-2.19-12.273-8.222c.002-6.041 5.49-12.206 12.27-13.773s12.268 2.114 12.27 8.227" class="B D"/><path d="M570.092 224.471c-.708 0-1.467.088-2.242.263-5.121 1.192-9.446 5.875-9.446 10.233 0 1.538.571 2.804 1.646 3.675 1.467 1.175 3.721 1.542 6.2 1 5.113-1.121 9.417-5.8 9.417-10.221 0-1.579-.575-2.875-1.671-3.746-.996-.792-2.358-1.204-3.904-1.204m-5.996 22.683c-3.258 0-6.267-.979-8.596-2.846-2.817-2.263-4.367-5.579-4.367-9.342 0-7.746 6.629-15.35 15.079-17.308 4.621-1.083 9.096-.225 12.304 2.325 2.85 2.267 4.421 5.617 4.421 9.438 0 7.846-6.646 15.454-15.125 17.321-1.258.279-2.508.413-3.717.413" class="B C"/><path d="M640.162 195.56c0 6.297-5.491 12.674-12.264 14.233s-12.271-2.222-12.271-8.446c-.003-6.22 5.496-12.598 12.269-14.23 6.776-1.637 12.265 2.142 12.266 8.443" class="B D"/><path d="M630.976 190.371c-.713 0-1.458.088-2.233.279-5.142 1.238-9.488 6.142-9.488 10.7 0 1.671.608 3.038 1.754 3.95 1.458 1.154 3.663 1.496 6.067.95 5.129-1.179 9.454-6.075 9.454-10.688 0-1.721-.613-3.113-1.779-4.029-.975-.767-2.292-1.163-3.775-1.163m-6.058 23.404c-3.179 0-6.133-.954-8.433-2.788-2.896-2.308-4.496-5.729-4.496-9.638 0-7.929 6.608-15.733 15.05-17.771 4.55-1.092 9-.279 12.208 2.242 2.933 2.313 4.554 5.771 4.554 9.742 0 8.021-6.638 15.825-15.096 17.771-1.279.296-2.554.442-3.788.442" class="B C"/><path d="M700.538 142.419c0 6.488-5.494 13.11-12.267 14.796s-12.27-2.144-12.272-8.55c0-6.419 5.495-13.038 12.27-14.801s12.268 2.067 12.269 8.555" class="B D"/><g class="C B"><path d="M691.488 137.075c-.742 0-1.504.1-2.304.308-5.175 1.342-9.546 6.513-9.546 11.279 0 1.8.633 3.242 1.838 4.183 1.417 1.117 3.583 1.421 5.917.85 5.154-1.288 9.508-6.454 9.508-11.279 0-1.846-.642-3.317-1.854-4.254-.929-.717-2.167-1.088-3.558-1.088m-6.325 24.171c-3.067 0-5.921-.917-8.167-2.671-2.979-2.333-4.629-5.854-4.629-9.913 0-8.088 6.588-16.129 14.983-18.313 4.533-1.179 8.913-.421 12.142 2.063 3.013 2.329 4.675 5.883 4.675 10.004 0 8.179-6.596 16.229-15.021 18.329a16.56 16.56 0 0 1-3.983.5M521.438 266.415c-3.767.804-6.838 4.129-6.838 7.417s3.071 5.329 6.838 4.546 6.829-4.108 6.829-7.421-3.063-5.346-6.829-4.542"/><path d="M521.438 238.009c-3.767.863-6.838 4.229-6.838 7.517s3.071 5.279 6.838 4.442 6.829-4.208 6.829-7.521-3.063-5.3-6.829-4.438m0-28.412c-3.767.917-6.838 4.333-6.838 7.621s3.071 5.229 6.838 4.338 6.829-4.308 6.829-7.617-3.063-5.258-6.829-4.342m0-56.82c-3.767 1.029-6.838 4.533-6.838 7.821s3.071 5.142 6.838 4.138 6.829-4.508 6.829-7.821-3.063-5.167-6.829-4.138m0-28.41c-3.767 1.083-6.838 4.633-6.838 7.921s3.071 5.1 6.838 4.042 6.829-4.617 6.829-7.929-3.063-5.117-6.829-4.033m30.412 162.609c-3.767.754-6.829 4.075-6.829 7.417s3.063 5.458 6.829 4.729 6.829-4.05 6.829-7.413-3.063-5.488-6.829-4.733m32.446-6.48c-3.767.754-6.829 4.121-6.829 7.517s3.063 5.563 6.829 4.833 6.829-4.1 6.829-7.517-3.063-5.588-6.829-4.833m64.888-12.957c-3.767.754-6.829 4.213-6.829 7.721s3.063 5.763 6.829 5.033 6.829-4.188 6.829-7.721-3.063-5.788-6.829-5.033m32.45-6.48c-3.767.754-6.838 4.258-6.838 7.821s3.071 5.863 6.838 5.133 6.829-4.233 6.829-7.821-3.063-5.888-6.829-5.133m32.437-6.478c-3.767.754-6.829 4.3-6.829 7.921s3.063 5.967 6.829 5.238 6.829-4.279 6.829-7.921-3.058-5.992-6.829-5.238"/><path d="M521.438 181.185c-3.767.971-6.838 4.438-6.838 7.725s3.071 5.188 6.838 4.238 6.829-4.408 6.829-7.717-3.063-5.217-6.829-4.246m95.3 92.834c-3.767.754-6.829 4.167-6.829 7.617s3.063 5.663 6.829 4.933 6.838-4.142 6.838-7.617-3.071-5.688-6.838-4.933"/></g><path d="M52.068 522.969c.001 4.483-5.489 8.667-12.264 9.346s-12.272-2.339-12.27-6.751 5.49-8.584 12.269-9.343 12.269 2.264 12.265 6.747" class="B D"/><path d="M41.842 519.742a15.1 15.1 0 0 0-1.638.092c-5.513.613-9.033 3.808-9.033 5.733 0 .183 0 .75.767 1.442 1.121 1.008 3.767 2.054 7.5 1.692 5.492-.546 9-3.763 9-5.729 0-.2 0-.804-.796-1.521-.95-.846-2.967-1.708-5.8-1.708m-3.892 16.304c-4.338 0-8.3-1.308-10.888-3.65-2.042-1.842-3.163-4.267-3.163-6.829 0-6.292 6.808-11.988 15.5-12.954 5.25-.592 10.008.667 13.088 3.425 2.079 1.854 3.217 4.321 3.217 6.933 0 6.396-6.829 12.088-15.542 12.958a22.12 22.12 0 0 1-2.213.117" class="B C"/><path d="M112.932 455.121c-.002 4.675-5.492 9.23-12.267 10.184s-12.272-1.994-12.272-6.592c-.002-4.59 5.496-9.147 12.272-10.18s12.266 1.919 12.267 6.589" class="B D"/><path d="M103.333 451.959a14.47 14.47 0 0 0-2.125.167c-5.254.796-9.179 4.142-9.179 6.592 0 .375.083.954.825 1.6 1.163 1.008 3.658 1.9 7.304 1.396 5.229-.738 9.138-4.088 9.138-6.588 0-.404-.092-1.017-.858-1.675-.908-.788-2.658-1.492-5.104-1.492m-5.217 17.167c-3.983 0-7.538-1.158-10.029-3.325-2.146-1.863-3.329-4.383-3.329-7.083 0-6.413 6.75-12.467 15.358-13.775 5.188-.788 9.929.308 13.063 2.996 2.183 1.875 3.383 4.429 3.383 7.188 0 6.517-6.763 12.567-15.392 13.783-1.038.142-2.058.217-3.054.217" class="B C"/><path d="M173.31 465.525c-.003 4.86-5.493 9.499-12.266 10.371s-12.274-2.299-12.272-7.075c.001-4.784 5.494-9.428 12.27-10.376s12.267 2.22 12.268 7.08" class="B D"/><path d="M163.4 461.913a12.83 12.83 0 0 0-1.858.133c-5.229.729-9.133 4.179-9.133 6.771 0 .729.317 1.367.975 1.946 1.179 1.029 3.708 1.996 7.192 1.525 5.213-.667 9.1-4.121 9.1-6.767 0-.771-.329-1.433-1.008-2.025-.95-.825-2.767-1.583-5.267-1.583m-4.6 17.763c-4.029 0-7.658-1.208-10.217-3.458-2.221-1.954-3.442-4.583-3.442-7.4 0-6.629 6.758-12.767 15.396-13.975 5.033-.667 9.771.45 12.9 3.171 2.263 1.971 3.504 4.633 3.504 7.508 0 6.725-6.779 12.867-15.438 13.979-.913.121-1.817.175-2.704.175M24.619 563.342c-3.767.3-6.829 2.517-6.829 4.95s3.063 4.188 6.829 3.913 6.829-2.496 6.829-4.954-3.063-4.208-6.829-3.908m32.446-2.58c-3.767.3-6.829 2.563-6.829 5.054s3.063 4.288 6.829 4.008 6.829-2.538 6.829-5.05-3.063-4.313-6.829-4.013m64.889-5.149c-3.767.3-6.829 2.654-6.829 5.254s3.063 4.488 6.829 4.213 6.829-2.629 6.829-5.254-3.058-4.513-6.829-4.213m32.448-2.579c-3.767.3-6.833 2.7-6.833 5.358s3.067 4.588 6.833 4.313 6.829-2.675 6.829-5.358-3.063-4.613-6.829-4.313m32.443-2.579c-3.771.3-6.829 2.746-6.829 5.458s3.058 4.692 6.829 4.417 6.829-2.725 6.829-5.458-3.063-4.717-6.829-4.417m-97.337 7.733c-3.767.3-6.829 2.608-6.829 5.154s3.063 4.392 6.829 4.113 6.833-2.583 6.833-5.154-3.067-4.413-6.833-4.113" class="C B"/><path d="M749.562 547.213l-263.616 15.848-.001-226.557 263.619-47.551-.002 258.26z" class="B G"/><path d="M490.792 340.554v217.367l253.921-15.271V294.742l-253.921 45.813zM481.1 568.209V332.454l273.304-49.304v268.621L481.1 568.209z" class="B E"/><path d="M526.505 493.23a4.85 4.85 0 0 1-4.321-2.638c-1.217-2.383-.275-5.3 2.113-6.525l39.463-20.504 60.092-88.617 1.975-2.992 3.438 1.017 60.95 18.858 1.163.375.85.888 29.046 30.846c1.825 1.958 1.713 5.025-.258 6.85-1.938 1.817-5.004 1.717-6.838-.263l-28.104-29.85-56.117-17.396-58.917 86.792-.671.963-1.042.546-40.621 21.121c-.704.358-1.458.529-2.2.529" class="B F"/><path d="M579.303 467.206c.001 6.113-5.492 11.617-12.266 12.296s-12.27-3.663-12.268-9.701 5.491-11.542 12.271-12.292 12.266 3.588 12.263 9.697" class="B G"/><path d="M568.542 461.059a8.99 8.99 0 0 0-1.1.063c-4.9.542-9.038 4.517-9.038 8.683 0 2.092 1.021 3.463 1.888 4.238 1.567 1.421 3.896 2.125 6.388 1.846 4.875-.492 8.988-4.467 8.988-8.679 0-1.708-.658-3.208-1.921-4.329-1.313-1.183-3.171-1.821-5.204-1.821m-2.867 22.146c-3.9 0-7.571-1.333-10.263-3.771-2.758-2.5-4.279-5.917-4.279-9.629 0-7.958 6.808-14.942 15.504-15.904 4.496-.483 8.863.8 11.954 3.563a12.89 12.89 0 0 1 4.346 9.746c0 8.046-6.825 15.033-15.538 15.908a17.14 17.14 0 0 1-1.725.088" class="B F"/><path d="M640.164 377.039c-.001 6.3-5.493 12.178-12.267 13.139s-12.27-3.315-12.27-9.535 5.494-12.11 12.27-13.144 12.264 3.24 12.267 9.539" class="B G"/><path d="M629.867 370.984c-.463 0-.95.038-1.429.108-4.979.763-9.183 5.133-9.183 9.55 0 1.771.675 3.288 1.942 4.388 1.525 1.325 3.804 1.858 6.179 1.55 4.963-.7 9.154-5.067 9.154-9.538 0-1.817-.679-3.363-1.971-4.467-1.2-1.038-2.867-1.592-4.692-1.592m-3.833 22.963c-3.625 0-7.029-1.2-9.6-3.429-2.863-2.483-4.446-5.992-4.446-9.875 0-8.067 6.738-15.417 15.354-16.733 4.438-.675 8.829.467 11.963 3.154 2.892 2.492 4.496 6.038 4.496 9.979 0 8.167-6.771 15.517-15.404 16.733-.792.113-1.583.171-2.363.171" class="B F"/><path d="M700.537 394.784c0 6.487-5.489 12.449-12.267 13.32s-12.269-3.618-12.271-10.028 5.499-12.374 12.271-13.321 12.267 3.542 12.267 10.029" class="B G"/><g class="F B"><path d="M690.071 388.259a9.28 9.28 0 0 0-1.3.096c-4.946.688-9.129 5.142-9.129 9.721 0 1.933.717 3.583 2.079 4.788 1.554 1.358 3.663 1.917 6.088 1.638 4.933-.633 9.096-5.083 9.096-9.717 0-1.954-.75-3.679-2.113-4.871-1.25-1.079-2.896-1.654-4.721-1.654m-3.438 23.583c-3.65 0-7.104-1.233-9.708-3.525-2.933-2.583-4.554-6.217-4.554-10.242 0-8.283 6.767-15.717 15.4-16.925 4.392-.579 8.675.583 11.792 3.283 2.971 2.588 4.608 6.263 4.608 10.35 0 8.383-6.775 15.817-15.433 16.925a16.11 16.11 0 0 1-2.104.133m-165.196 85.4c-3.767.35-6.838 3.308-6.838 6.596s3.071 5.696 6.838 5.371c3.767-.333 6.829-3.292 6.829-6.604s-3.063-5.713-6.829-5.363"/><path d="M521.438 468.838c-3.767.408-6.838 3.408-6.838 6.696s3.071 5.646 6.838 5.263 6.829-3.383 6.829-6.696-3.063-5.671-6.829-5.263m0-28.413c-3.767.463-6.838 3.508-6.838 6.796s3.071 5.6 6.838 5.163 6.829-3.488 6.829-6.796-3.063-5.625-6.829-5.163m0-56.819c-3.767.575-6.838 3.713-6.838 7s3.071 5.508 6.838 4.958 6.829-3.688 6.829-7-3.063-5.533-6.829-4.958m0-28.412c-3.767.629-6.838 3.813-6.838 7.1s3.071 5.471 6.838 4.863 6.829-3.796 6.829-7.104-3.063-5.488-6.829-4.858m30.412 166.268c-3.767.3-6.829 3.254-6.829 6.596s3.063 5.825 6.829 5.55 6.829-3.229 6.829-6.592-3.063-5.854-6.829-5.554m32.446-2.579c-3.767.3-6.829 3.3-6.829 6.696s3.063 5.929 6.829 5.654 6.829-3.275 6.829-6.696-3.063-5.954-6.829-5.654m64.888-5.154c-3.767.3-6.829 3.388-6.829 6.896s3.063 6.133 6.829 5.858 6.829-3.371 6.829-6.9-3.063-6.154-6.829-5.854m32.45-2.575c-3.767.3-6.838 3.438-6.838 7s3.071 6.229 6.838 5.954 6.829-3.413 6.829-7-3.063-6.254-6.829-5.954m32.437-2.58c-3.767.3-6.829 3.479-6.829 7.1s3.063 6.333 6.829 6.058 6.829-3.458 6.829-7.1-3.058-6.358-6.829-6.058"/><path d="M521.438 412.013c-3.767.521-6.838 3.617-6.838 6.904s3.071 5.554 6.838 5.058 6.829-3.588 6.829-6.896-3.063-5.588-6.829-5.067m95.3 104.297c-3.767.3-6.829 3.346-6.829 6.796s3.063 6.029 6.829 5.754 6.838-3.321 6.838-6.796-3.071-6.054-6.838-5.754"/></g><path d="M485.947 563.063l-263.619 15.85.004-194.854 263.615-47.553v226.556z" class="B D"/><path d="M227.175 388.109v185.663L481.1 558.505V342.3l-253.925 45.808zm-9.692 195.95v-204.05l273.313-49.3v236.917l-273.313 16.433z" class="B E"/><path d="M456.784 488.125c-1.642 0-3.242-.833-4.154-2.342l-30.717-49.958-57.442-18.913-58.721 22.875-40.117 28.104a4.84 4.84 0 0 1-6.738-1.25c-1.513-2.208-.958-5.225 1.25-6.738l40.479-28.367 1.092-.588 60.767-23.675 1.6-.642 1.642.517c24.438 7.65 36.4 11.596 60.967 20.075l1.621.558.908 1.446 31.708 51.546c1.383 2.292.65 5.267-1.646 6.654-.779.471-1.646.696-2.5.696" class="B C"/><path d="M315.683 434.21c.004 5.297-5.491 10.341-12.263 11.255s-12.271-2.567-12.273-7.789 5.494-10.257 12.272-11.252 12.265 2.492 12.264 7.786" class="B D"/><path d="M305.7 429.888c-.567 0-1.154.042-1.75.133-5.404.792-9.167 4.671-9.167 7.654 0 1.029.425 1.925 1.271 2.663 1.529 1.338 4.113 1.9 6.871 1.529 5.383-.729 9.125-4.621 9.125-7.654 0-1.075-.442-1.996-1.3-2.742-1.188-1.025-3.004-1.583-5.05-1.583m-4.438 19.358c-3.883 0-7.425-1.204-9.988-3.433-2.425-2.117-3.758-5.008-3.758-8.138 0-7.058 6.75-13.583 15.379-14.846 4.846-.725 9.463.425 12.604 3.142 2.463 2.125 3.821 5.05 3.821 8.242 0 7.158-6.771 13.683-15.413 14.854a19.74 19.74 0 0 1-2.646.179" class="B C"/><path d="M376.548 410.405c-.003 5.486-5.495 10.729-12.266 11.707s-12.274-2.617-12.272-8.027 5.494-10.649 12.271-11.703 12.267 2.542 12.267 8.024" class="B D"/><path d="M366.592 405.838a11.08 11.08 0 0 0-1.754.138c-4.9.754-9.192 4.546-9.192 8.108 0 1.154.463 2.146 1.383 2.942 1.517 1.325 4.075 1.867 6.729 1.488 4.963-.717 9.154-4.429 9.154-8.108 0-1.2-.471-2.221-1.408-3.021-1.179-1.008-2.938-1.546-4.913-1.546m-4.513 20.063c-3.788 0-7.267-1.179-9.808-3.383-2.513-2.171-3.892-5.167-3.892-8.433 0-7.238 6.738-13.958 15.342-15.292 4.779-.746 9.358.371 12.508 3.071 2.546 2.179 3.954 5.213 3.954 8.542 0 7.338-6.758 14.058-15.392 15.3-.913.129-1.821.196-2.713.196" class="B C"/><path d="M436.925 430.153c0 5.671-5.493 10.978-12.267 11.849s-12.274-2.961-12.272-8.557 5.496-10.898 12.272-11.845 12.268 2.886 12.267 8.553" class="B D"/><g class="C B"><path d="M426.713 425.092c-.5 0-1.021.038-1.546.113-4.963.692-9.142 4.467-9.142 8.242 0 1.313.517 2.433 1.538 3.333 1.55 1.367 3.958 1.971 6.633 1.617 4.933-.633 9.096-4.404 9.096-8.242 0-1.358-.529-2.508-1.571-3.417-1.238-1.075-3.013-1.646-5.008-1.646m-3.946 20.667c-3.846 0-7.404-1.233-10.004-3.525-2.583-2.271-4.008-5.392-4.008-8.788 0-7.45 6.767-14.238 15.404-15.446 4.675-.667 9.196.529 12.333 3.254 2.625 2.279 4.067 5.442 4.067 8.9 0 7.55-6.779 14.342-15.433 15.454a18.92 18.92 0 0 1-2.358.15m-164.946 76.084c-3.771.35-6.838 2.942-6.838 5.775s3.067 4.875 6.838 4.546 6.829-2.921 6.829-5.779-3.063-4.892-6.829-4.542"/><path d="M257.822 497.338c-3.771.408-6.838 3.038-6.838 5.875s3.067 4.821 6.838 4.438 6.829-3.017 6.829-5.875-3.063-4.846-6.829-4.438m0-24.513c-3.771.463-6.838 3.142-6.838 5.975s3.067 4.779 6.838 4.338 6.829-3.117 6.829-5.975-3.063-4.8-6.829-4.338m0-49.012c-3.771.575-6.838 3.346-6.838 6.179s3.067 4.688 6.838 4.138 6.829-3.321 6.829-6.179-3.063-4.713-6.829-4.138m0-24.511c-3.771.629-6.838 3.446-6.838 6.279s3.067 4.65 6.838 4.042 6.829-3.425 6.829-6.283-3.063-4.667-6.829-4.038m30.412 143.103c-3.767.3-6.829 2.883-6.829 5.771s3.063 5.008 6.829 4.733 6.829-2.867 6.829-5.775-3.063-5.029-6.829-4.729m32.449-2.58c-3.771.3-6.829 2.933-6.829 5.875s3.058 5.108 6.829 4.829 6.829-2.904 6.829-5.871-3.063-5.133-6.829-4.833m64.888-5.154c-3.767.3-6.829 3.025-6.829 6.075s3.063 5.313 6.829 5.038 6.829-3 6.829-6.079-3.063-5.333-6.829-5.033m32.446-2.58c-3.767.3-6.833 3.067-6.833 6.179s3.067 5.408 6.833 5.133 6.829-3.046 6.829-6.179-3.063-5.433-6.829-5.133m32.442-2.575c-3.767.3-6.829 3.113-6.829 6.279s3.063 5.513 6.829 5.233 6.829-3.088 6.829-6.279-3.063-5.533-6.829-5.233"/><path d="M257.822 448.317c-3.771.521-6.838 3.25-6.838 6.083s3.067 4.733 6.838 4.238 6.829-3.217 6.829-6.075-3.063-4.767-6.829-4.246m527.233-238.203c-3.767.804-6.838 4.496-6.838 8.238s3.071 6.15 6.838 5.371 6.829-4.483 6.829-8.246-3.063-6.167-6.829-5.363m0-32.308c-3.767.863-6.838 4.6-6.838 8.338s3.071 6.1 6.838 5.263 6.829-4.575 6.829-8.338-3.063-6.125-6.829-5.263m0-32.314c-3.767.917-6.838 4.7-6.838 8.442s3.071 6.05 6.838 5.158 6.829-4.675 6.829-8.438-3.063-6.079-6.829-5.163m0-64.621c-3.767 1.029-6.838 4.904-6.838 8.642s3.071 5.963 6.838 4.958 6.829-4.879 6.829-8.642-3.063-5.988-6.829-4.958m30.408 153.464c-3.767.754-6.829 4.442-6.829 8.238s3.063 6.279 6.829 5.55 6.829-4.417 6.829-8.233-3.063-6.308-6.829-5.554m32.446-6.48c-3.767.754-6.829 4.488-6.829 8.338s3.063 6.383 6.829 5.654 6.829-4.467 6.829-8.338-3.063-6.408-6.829-5.654m64.896-12.958c-3.767.754-6.829 4.579-6.829 8.538s3.063 6.588 6.829 5.858 6.829-4.558 6.829-8.542-3.063-6.608-6.829-5.854m32.446-6.48c-3.767.754-6.838 4.625-6.838 8.642s3.071 6.683 6.838 5.954 6.829-4.6 6.829-8.638-3.063-6.713-6.829-5.958m32.441-6.478c-3.767.754-6.829 4.671-6.829 8.742s3.063 6.788 6.829 6.058 6.829-4.646 6.829-8.742-3.063-6.813-6.829-6.058"/><path d="M785.055 113.178c-3.767.971-6.838 4.808-6.838 8.55s3.071 6.004 6.838 5.058 6.829-4.779 6.829-8.542-3.063-6.038-6.829-5.067m95.3 108.2c-3.767.754-6.829 4.533-6.829 8.438s3.063 6.483 6.829 5.754 6.838-4.513 6.838-8.442-3.071-6.504-6.838-5.75"/></g><path d="M749.565 805.475l-263.618-15.848V563.065l263.619-15.849-.001 258.259z" class="B G"/><path d="M490.792 785.059l253.921 15.271V552.355l-253.921 15.271v217.434zm263.613 25.558L481.1 794.18V558.505l273.304-16.433v268.546z" class="B E"/><path d="M565.7 709.038l-42.563-41.208a4.84 4.84 0 0 1-.117-6.85 4.85 4.85 0 0 1 6.854-.117l38.55 37.321 57.467-16.925 60.196-37.933c8.8-4.358 28.238 3.3 36.233 6.771 2.454 1.063 3.579 3.917 2.517 6.367-1.067 2.467-3.896 3.596-6.379 2.521-11.696-5.075-24.892-8.513-27.596-7.246l-60.446 38.113-1.117.5-60.908 17.921-2.692.767z" class="B F"/><path d="M579.302 704.995c-.001 6.109-5.492 10.951-12.266 10.82-6.778-.139-12.273-5.144-12.269-11.174 0-6.038 5.491-10.88 12.27-10.824 6.775.064 12.266 5.065 12.265 11.178" class="B G"/><path d="M566.913 697.451c-2.5 0-4.854.917-6.483 2.525-1.308 1.296-2.025 2.954-2.025 4.663 0 4.063 3.9 7.446 8.708 7.538 2.583.054 4.854-.838 6.488-2.429 1.338-1.308 2.067-2.992 2.067-4.754 0-4.117-3.892-7.5-8.663-7.542h-.092zm.4 22c-.117 0-.242-.004-.35-.004-8.729-.183-15.833-6.821-15.833-14.808 0-3.663 1.488-7.15 4.183-9.825 3.017-2.975 7.408-4.538 11.75-4.633 8.758.083 15.875 6.725 15.875 14.813 0 3.729-1.508 7.258-4.254 9.942-2.933 2.879-7.067 4.517-11.371 4.517" class="B F"/><path d="M640.161 685.773c0 6.3-5.49 11.35-12.264 11.281s-12.272-5.173-12.273-11.394 5.498-11.275 12.273-11.281 12.268 5.094 12.265 11.394" class="B G"/><path d="M627.909 678.013h-.008c-4.767.004-8.642 3.438-8.642 7.646 0 4.233 3.888 7.713 8.671 7.763 2.325.129 4.767-.892 6.396-2.504 1.421-1.404 2.204-3.233 2.204-5.142 0-1.925-.783-3.763-2.213-5.192-1.633-1.633-3.975-2.571-6.408-2.571m.104 22.675h-.163c-8.742-.088-15.858-6.833-15.858-15.029 0-8.217 7.138-14.908 15.9-14.913h.017c4.346 0 8.558 1.708 11.542 4.692 2.804 2.804 4.35 6.475 4.35 10.338s-1.546 7.521-4.35 10.304c-2.963 2.938-7.129 4.608-11.438 4.608" class="B F"/><path d="M700.542 647.147c-.001 6.488-5.495 11.794-12.27 11.847-6.775.061-12.268-5.092-12.27-11.505s5.496-11.711 12.27-11.843 12.267 5.017 12.27 11.501" class="B G"/><g class="F B"><path d="M688.53 639.276l-.183.004c-4.804.096-8.704 3.779-8.704 8.213 0 2.004.817 3.913 2.279 5.371 1.65 1.638 3.767 2.529 6.325 2.5 4.767-.033 8.658-3.721 8.658-8.213 0-2.054-.825-3.992-2.321-5.454-1.592-1.563-3.725-2.421-6.054-2.421m-.371 23.358c-4.325 0-8.358-1.633-11.354-4.608-2.863-2.838-4.433-6.575-4.433-10.533 0-8.363 7.1-15.308 15.825-15.479 4.417.029 8.442 1.504 11.483 4.488 2.892 2.842 4.492 6.629 4.492 10.65 0 8.467-7.117 15.408-15.871 15.483h-.142zm-166.721 65.433c-3.767-.1-6.838 2.488-6.838 5.775s3.071 6.063 6.838 6.192c3.767.121 6.829-2.471 6.829-5.783s-3.063-6.083-6.829-6.183m0-28.405c-3.767-.046-6.838 2.588-6.838 5.875s3.071 6.017 6.838 6.083 6.829-2.563 6.829-5.875-3.063-6.038-6.829-6.083m0-28.412c-3.767.008-6.838 2.692-6.838 5.979s3.071 5.967 6.838 5.979 6.829-2.667 6.829-5.975-3.063-5.992-6.829-5.983m0-56.817c-3.767.121-6.838 2.892-6.838 6.179s3.071 5.879 6.838 5.779 6.829-2.867 6.829-6.179-3.063-5.9-6.829-5.779m0-28.413c-3.767.179-6.838 2.992-6.838 6.279s3.071 5.838 6.838 5.683 6.829-2.971 6.829-6.283-3.063-5.854-6.829-5.679m30.412 169.925c-3.767-.15-6.829 2.433-6.829 5.775s3.063 6.196 6.829 6.375 6.829-2.413 6.829-5.775-3.063-6.221-6.829-6.375m32.446 1.325c-3.767-.154-6.829 2.479-6.829 5.875s3.063 6.296 6.829 6.475 6.829-2.458 6.829-5.875-3.063-6.321-6.829-6.475m64.888 2.65c-3.767-.154-6.829 2.567-6.829 6.075s3.063 6.504 6.829 6.679 6.829-2.546 6.829-6.075-3.063-6.525-6.829-6.679m32.45 1.325c-3.767-.154-6.838 2.613-6.838 6.175s3.071 6.6 6.838 6.779 6.829-2.592 6.829-6.179-3.063-6.625-6.829-6.775m32.437 1.325c-3.767-.154-6.829 2.663-6.829 6.279s3.063 6.7 6.829 6.879 6.829-2.638 6.829-6.279-3.058-6.725-6.829-6.879"/><path d="M521.438 642.842c-3.767.067-6.838 2.792-6.838 6.079s3.071 5.925 6.838 5.883 6.829-2.767 6.829-6.075-3.063-5.954-6.829-5.888m95.3 115.751c-3.767-.15-6.829 2.525-6.829 5.979s3.063 6.396 6.829 6.575 6.838-2.504 6.838-5.975-3.071-6.425-6.838-6.579"/></g><path d="M52.071 626.597c0 4.486-5.49 8.276-12.267 8.467-6.78.199-12.272-3.215-12.273-7.625.003-4.403 5.493-8.193 12.271-8.463s12.269 3.14 12.268 7.621" class="B D"/><path d="M40.567 622.588l-.621.008c-5.358.221-8.775 3.017-8.775 4.842 0 .55.292 1.117.871 1.679 1.229 1.192 3.983 2.429 7.654 2.313 4.921-.138 8.742-2.713 8.742-4.833 0-.592-.308-1.188-.913-1.771-1.15-1.108-3.563-2.238-6.958-2.238m-1.3 16.117c-4.896 0-9.454-1.613-12.292-4.375-2.013-1.954-3.075-4.338-3.075-6.892 0-6.425 6.921-11.742 15.754-12.1 5.175-.225 9.929 1.383 12.908 4.25 2.025 1.946 3.142 4.433 3.142 7.008 0 6.529-6.942 11.846-15.8 12.1l-.638.008" class="B C"/><path d="M112.932 634.85c-.001 4.673-5.491 8.575-12.269 8.724s-12.27-3.451-12.268-8.049 5.493-8.5 12.269-8.724 12.268 3.376 12.268 8.049" class="B D"/><path d="M101.246 630.421l-.463.008c-5.013.167-8.754 2.825-8.754 5.092 0 .683.338 1.363 1.013 2.021 1.583 1.55 4.479 2.483 7.542 2.396 4.988-.108 8.713-2.775 8.713-5.088 0-.725-.354-1.433-1.05-2.113-1.496-1.446-4.15-2.317-7-2.317m-1.004 16.788c-4.904 0-9.358-1.617-12.279-4.471-2.096-2.05-3.204-4.542-3.204-7.217 0-6.633 6.933-12.063 15.783-12.358 5.154-.063 9.729 1.425 12.758 4.354 2.104 2.038 3.263 4.642 3.263 7.333 0 6.733-6.95 12.158-15.821 12.354-.167.004-.333.004-.5.004" class="B C"/><path d="M173.308 700.011c.002 4.855-5.49 8.676-12.264 8.541-6.778-.144-12.272-4.132-12.271-8.911s5.493-8.605 12.268-8.541 12.269 4.053 12.267 8.911" class="B D"/><path d="M160.875 694.734c-2.938 0-5.725.958-7.3 2.521-.771.763-1.167 1.567-1.167 2.388 0 2.408 3.579 5.167 8.708 5.275 3.183.088 5.746-.85 7.363-2.438.796-.775 1.2-1.608 1.2-2.471 0-2.454-3.567-5.225-8.671-5.275h-.133zm.525 17.454c-.146 0-.288-.004-.433-.004-8.871-.183-15.825-5.696-15.825-12.542 0-2.754 1.179-5.433 3.317-7.554 3.017-2.988 7.771-4.529 12.621-4.625 8.896.088 15.867 5.6 15.867 12.546 0 2.808-1.204 5.529-3.379 7.663-2.942 2.879-7.358 4.517-12.167 4.517M24.619 734.421c-3.767-.154-6.829 1.696-6.829 4.129s3.063 4.554 6.829 4.733 6.829-1.675 6.829-4.133-3.063-4.575-6.829-4.729m32.446 1.325c-3.767-.154-6.829 1.742-6.829 4.233s3.063 4.654 6.829 4.829 6.829-1.717 6.829-4.229-3.063-4.679-6.829-4.833m64.889 2.65c-3.767-.154-6.829 1.833-6.829 4.433s3.063 4.858 6.829 5.033 6.829-1.808 6.829-4.433-3.058-4.879-6.829-5.033m32.448 1.325c-3.767-.154-6.833 1.879-6.833 4.533s3.067 4.958 6.833 5.138 6.829-1.854 6.829-4.538-3.063-4.979-6.829-5.133m32.443 1.325c-3.771-.154-6.829 1.925-6.829 4.638s3.058 5.058 6.829 5.238 6.829-1.9 6.829-4.638-3.063-5.083-6.829-5.238m-97.337-3.975c-3.767-.154-6.829 1.788-6.829 4.333s3.063 4.754 6.829 4.933 6.833-1.767 6.833-4.333-3.067-4.779-6.833-4.933" class="C B"/><path d="M1276.792 837.174l-263.616-15.85V531.362l263.616-15.853v321.665z" class="B D"/><path d="M1018.03 816.763l253.921 15.271V520.65l-253.921 15.271v280.842zm263.613 25.558l-273.304-16.438V526.796l273.304-16.433v331.959z" class="B E"/><path d="M1247.634 723.255a4.96 4.96 0 0 1-.425-.017l-34.258-2.913-1.25-2.3-59.788-107.633-58.796-15.138-40.054-5.729c-2.65-.371-4.492-2.821-4.129-5.475.379-2.646 2.892-4.492 5.475-4.121l40.579 5.829 61.379 15.783 1.963.521 1.008 1.771 59.629 107.271 29.075 2.479c2.667.225 4.638 2.571 4.408 5.242-.217 2.521-2.333 4.429-4.817 4.429" class="B C"/><path d="M1106.532 590.422c.003 7.742-5.488 14.176-12.265 14.371s-12.271-5.862-12.271-13.529 5.495-14.101 12.269-14.367 12.268 5.787 12.267 13.525" class="B D"/><path d="M1094.705 580.521l-.292.004c-4.846.196-8.783 5.013-8.783 10.738 0 3 1.108 5.796 3.05 7.679 1.079 1.05 2.846 2.254 5.475 2.217 4.829-.138 8.75-4.954 8.75-10.738 0-3.058-1.121-5.883-3.079-7.763-1.033-.988-2.738-2.138-5.121-2.138m-.758 27.908c-3.833 0-7.492-1.508-10.342-4.275-3.333-3.242-5.242-7.938-5.242-12.892 0-9.579 7.067-17.65 15.754-17.996 3.733-.221 7.783 1.313 10.746 4.154 3.375 3.238 5.308 7.979 5.308 13 0 9.675-7.088 17.754-15.804 18.004-.142.004-.283.004-.421.004" class="B C"/><path d="M1167.393 605.888c.001 7.932-5.491 14.481-12.265 14.626s-12.272-6.098-12.272-13.951 5.498-14.402 12.273-14.626 12.266 6.023 12.263 13.951" class="B D"/><path d="M1155.476 595.563l-.229.004c-4.825.163-8.75 5.092-8.75 10.996 0 3.167 1.15 6.113 3.158 8.079 1.067 1.054 2.971 2.304 5.392 2.238 4.8-.104 8.708-5.038 8.708-10.992 0-3.225-1.163-6.204-3.188-8.167-1.029-.996-2.738-2.158-5.092-2.158m-.579 28.592c-3.825 0-7.475-1.529-10.325-4.317-3.4-3.325-5.346-8.167-5.346-13.275 0-9.779 7.079-17.971 15.779-18.263 3.963-.042 7.675 1.363 10.617 4.196 3.438 3.325 5.4 8.204 5.4 13.392 0 9.875-7.096 18.067-15.808 18.263l-.317.004" class="B C"/><path d="M1227.769 715.895c-.002 8.118-5.488 14.585-12.27 14.441-6.774-.14-12.27-6.77-12.269-14.812s5.495-14.506 12.27-14.441 12.267 6.694 12.269 14.812" class="B D"/><g class="C B"><path d="M1215.401 704.713c-2.413 0-4.183 1.25-5.242 2.3-2.092 2.071-3.296 5.171-3.296 8.508 0 6.067 3.913 11.083 8.721 11.175 2.329-.021 4.183-1.171 5.233-2.204 2.113-2.067 3.321-5.2 3.321-8.6 0-6.121-3.892-11.133-8.667-11.179h-.071zm.325 29.254h-.296c-8.725-.179-15.833-8.45-15.833-18.446 0-5.263 1.992-10.246 5.446-13.671 2.863-2.846 6.546-4.404 10.371-4.404h.121c8.754.083 15.875 8.358 15.875 18.446 0 5.342-2.013 10.367-5.504 13.792-2.825 2.771-6.429 4.283-10.179 4.283m-167.059 8.309c-3.767-.1-6.838 3.221-6.838 7.417s3.071 7.708 6.838 7.833 6.829-3.204 6.829-7.425-3.063-7.725-6.829-7.825"/><path d="M1048.668 706.067c-3.767-.046-6.838 3.321-6.838 7.517s3.071 7.654 6.838 7.725 6.829-3.3 6.829-7.517-3.063-7.679-6.829-7.725m0-36.212c-3.767.008-6.838 3.425-6.838 7.617s3.071 7.613 6.838 7.625 6.829-3.4 6.829-7.617-3.063-7.633-6.829-7.625m0-72.43c-3.767.121-6.838 3.629-6.838 7.821s3.071 7.521 6.838 7.421 6.829-3.604 6.829-7.821-3.063-7.542-6.829-7.421m0-36.212c-3.767.175-6.838 3.725-6.838 7.921s3.071 7.479 6.838 7.329 6.829-3.713 6.829-7.929-3.063-7.5-6.829-7.321m30.412 216.258c-3.767-.154-6.829 3.171-6.829 7.417s3.063 7.838 6.829 8.017 6.829-3.15 6.829-7.417-3.063-7.863-6.829-8.017m32.45 1.325c-3.767-.154-6.829 3.213-6.829 7.517s3.063 7.938 6.829 8.117 6.829-3.192 6.829-7.517-3.063-7.963-6.829-8.117m64.888 2.65c-3.767-.154-6.829 3.304-6.829 7.721 0 4.408 3.063 8.142 6.829 8.317s6.829-3.279 6.829-7.717-3.063-8.167-6.829-8.321m32.445 1.321c-3.767-.15-6.838 3.354-6.838 7.821s3.071 8.242 6.838 8.421 6.829-3.325 6.829-7.821-3.063-8.267-6.829-8.421m32.442 1.329c-3.767-.154-6.829 3.396-6.829 7.921s3.063 8.342 6.829 8.521 6.829-3.371 6.829-7.921-3.063-8.367-6.829-8.521"/><path d="M1048.668 633.638c-3.767.067-6.838 3.533-6.838 7.725s3.071 7.567 6.838 7.525 6.829-3.504 6.829-7.721-3.063-7.596-6.829-7.529m95.3 146.479c-3.767-.15-6.829 3.263-6.829 7.621s3.063 8.042 6.829 8.217 6.838-3.238 6.838-7.617-3.071-8.067-6.838-8.221"/></g><path d="M749.564 1063.737l-263.619-47.553.002-226.559 263.616 15.848.001 258.264z" class="B D"/><path d="M490.792 1012.126l253.921 45.808v-247.9l-253.921-15.271v217.363zm263.613 57.408L481.1 1020.226v-235.75l273.304 16.438v268.621z" class="B E"/><path d="M720.401 969.626c-.3 0-.613-.029-.929-.088l-33.725-6.454-1.129-1.788-59.829-92.871-59.163-18.783-40.175-9.042a4.85 4.85 0 0 1-3.679-5.783c.583-2.608 3.242-4.221 5.779-3.679l40.592 9.154 61.242 19.433 1.613.521.938 1.413 59.771 92.7 29.608 5.658c2.621.508 4.342 3.05 3.842 5.679-.446 2.317-2.483 3.929-4.754 3.929" class="B C"/><path d="M579.306 846.3c-.004 6.114-5.493 10.564-12.269 9.943s-12.271-6.016-12.27-12.055 5.49-10.484 12.269-9.943 12.269 5.941 12.27 12.055" class="B D"/><path d="M565.93 837.838c-2.183 0-4.192.713-5.604 2.017-.879.808-1.921 2.217-1.921 4.329 0 4.129 4.108 7.988 8.967 8.446 2.496.233 4.775-.483 6.346-1.913a5.84 5.84 0 0 0 1.95-4.421c0-4.183-4.088-8.038-8.925-8.425a8.83 8.83 0 0 0-.813-.033m2.329 22.1c-.508 0-1.029-.029-1.55-.079-8.738-.804-15.575-7.688-15.575-15.675 0-3.696 1.513-7.129 4.258-9.671 3.079-2.838 7.471-4.183 11.938-3.892 8.604.696 15.608 7.725 15.608 15.675a13.11 13.11 0 0 1-4.317 9.788c-2.725 2.492-6.438 3.854-10.363 3.854" class="B C"/><path d="M640.163 865.477c0 6.302-5.491 10.864-12.267 10.201s-12.27-6.253-12.269-12.48 5.497-10.792 12.271-10.196c6.775.587 12.269 6.178 12.265 12.475" class="B D"/><path d="M626.734 856.584c-2.1 0-4.054.7-5.442 1.971-.925.85-2.038 2.346-2.038 4.646 0 4.325 4.117 8.388 8.983 8.858 2.421.229 4.663-.446 6.225-1.854 1.358-1.229 2.067-2.871 2.067-4.733 0-4.383-4.1-8.433-8.954-8.846a8.13 8.13 0 0 0-.842-.042m2.421 22.792a15.01 15.01 0 0 1-1.617-.088c-8.575-.833-15.55-8.05-15.55-16.088 0-3.854 1.563-7.408 4.392-10 3.067-2.813 7.421-4.196 11.821-3.821 8.604.742 15.6 7.963 15.6 16.092 0 3.917-1.583 7.508-4.454 10.108-2.696 2.45-6.338 3.796-10.192 3.796" class="B C"/><path d="M700.542 960.32c-.003 6.487-5.492 10.971-12.266 10.012s-12.274-6.925-12.273-13.333c.002-6.416 5.495-10.899 12.271-10.02s12.267 6.853 12.267 13.341" class="B D"/><path d="M686.58 950.505c-1.896 0-3.579.6-4.858 1.713-1.363 1.192-2.079 2.85-2.079 4.783 0 4.579 4.183 9.038 9.138 9.738 2.292.283 4.471-.229 6.013-1.554 1.363-1.192 2.113-2.917 2.113-4.867 0-4.633-4.163-9.092-9.096-9.725a8.99 8.99 0 0 0-1.229-.088m3.463 23.583a15.7 15.7 0 0 1-2.283-.158c-8.629-1.213-15.388-8.65-15.388-16.929 0-4.025 1.621-7.667 4.554-10.242 3.083-2.729 7.408-3.983 11.813-3.379 8.658 1.117 15.433 8.558 15.433 16.938 0 4.092-1.638 7.767-4.621 10.35-2.554 2.229-5.933 3.421-9.508 3.421m-168.607-15.192c-3.767-.554-6.838 1.663-6.838 4.95s3.071 6.433 6.838 7.013 6.829-1.642 6.829-4.954-3.063-6.45-6.829-7.008m0-28.41c-3.767-.5-6.838 1.767-6.838 5.054s3.071 6.379 6.838 6.904 6.829-1.742 6.829-5.054-3.063-6.404-6.829-6.904m0-28.408c-3.767-.442-6.838 1.863-6.838 5.15s3.071 6.342 6.838 6.804 6.829-1.842 6.829-5.15-3.063-6.363-6.829-6.804m0-56.821c-3.767-.329-6.838 2.067-6.838 5.354s3.071 6.25 6.838 6.604 6.829-2.046 6.829-5.358-3.063-6.267-6.829-6.6m0-28.408c-3.767-.275-6.838 2.171-6.838 5.458s3.071 6.204 6.838 6.504 6.829-2.154 6.829-5.463-3.063-6.229-6.829-6.5m30.412 173.58c-3.767-.608-6.829 1.613-6.829 4.95s3.063 6.567 6.829 7.196 6.829-1.588 6.829-4.95-3.063-6.588-6.829-7.196m32.446 5.229c-3.767-.608-6.829 1.654-6.829 5.054 0 3.392 3.063 6.667 6.829 7.296s6.829-1.638 6.829-5.054-3.063-6.688-6.829-7.296m64.888 10.454c-3.767-.608-6.829 1.746-6.829 5.254s3.063 6.867 6.829 7.5 6.829-1.729 6.829-5.258-3.063-6.888-6.829-7.496m32.45 5.225c-3.767-.608-6.838 1.796-6.838 5.354 0 3.567 3.071 6.971 6.838 7.6s6.829-1.767 6.829-5.354-3.063-6.992-6.829-7.6m32.437 5.229c-3.767-.608-6.829 1.833-6.829 5.458 0 3.617 3.063 7.067 6.829 7.696s6.829-1.813 6.829-5.454-3.058-7.092-6.829-7.7m-192.633-142.9c-3.767-.388-6.838 1.975-6.838 5.263s3.071 6.288 6.838 6.7 6.829-1.946 6.829-5.254-3.063-6.321-6.829-6.708m95.3 127.216c-3.767-.608-6.829 1.7-6.829 5.154s3.063 6.767 6.829 7.4 6.838-1.683 6.838-5.158-3.071-6.788-6.838-7.396" class="C B"/><path d="M485.947 789.627l-263.619-15.855.001-194.854 263.615-15.854.002 226.563z" class="B D"/><path d="M227.175 769.213L481.1 784.476V568.209l-253.925 15.267v185.738zm263.621 25.55l-273.313-16.429V574.35l273.313-16.429v236.842z" class="B E"/><path d="M262.888 718.713a4.85 4.85 0 0 1-4.596-3.308c-.846-2.542.521-5.288 3.058-6.133l39.292-13.467c23.854-27.083 35.775-41.113 59.892-70.458l2.167-2.638 3.213 1.15 60.942 22.671 1.713 1.121 29.042 30.013a4.84 4.84 0 0 1-.163 6.85c-1.933 1.842-5 1.775-6.85-.171l-28.204-29.146-56.542-21.063c-23.038 28.013-35.004 42.05-58.775 69.025l-.833.946-1.192.421-40.625 13.938c-.508.171-1.029.25-1.538.25" class="B C"/><path d="M315.685 701.174c.003 5.292-5.491 9.476-12.265 9.345-6.774-.139-12.27-4.482-12.27-9.699s5.495-9.405 12.27-9.349c6.775.064 12.267 4.407 12.265 9.703" class="B D"/><path d="M303.275 695.109c-2.792 0-5.413.946-7.025 2.55-.667.663-1.471 1.746-1.471 3.158 0 3.192 3.992 5.971 8.713 6.063 2.746.096 5.425-.858 7.054-2.454.683-.671 1.504-1.783 1.504-3.25 0-3.25-3.967-6.029-8.663-6.067h-.113zm.463 19.046c-.129 0-.263-.004-.396-.004-8.875-.179-15.829-6.038-15.829-13.333 0-3.054 1.288-6.013 3.621-8.321 3.033-3.013 7.608-4.617 12.317-4.658 8.75.075 15.867 6.058 15.867 13.338 0 3.113-1.308 6.113-3.688 8.442-2.95 2.896-7.267 4.538-11.892 4.538" class="B C"/><path d="M376.545 629.153c0 5.485-5.492 10.05-12.266 10.189s-12.268-4.125-12.271-9.535 5.499-9.971 12.27-10.193c6.776-.214 12.267 4.054 12.267 9.539" class="B D"/><path d="M364.759 623.242l-.363.008c-4.746.154-8.754 3.154-8.754 6.554 0 1.575.863 2.746 1.583 3.454 1.629 1.592 4.229 2.613 6.975 2.45 4.725-.1 8.713-3.1 8.713-6.558 0-1.629-.879-2.821-1.621-3.538-1.542-1.496-3.963-2.371-6.533-2.371m-.808 19.738c-4.575 0-8.858-1.642-11.808-4.529-2.425-2.379-3.767-5.446-3.767-8.646 0-7.338 7.079-13.542 15.779-13.821 4.675-.196 9.146 1.458 12.192 4.404 2.471 2.396 3.833 5.504 3.833 8.763 0 7.442-7.1 13.642-15.829 13.825l-.4.004" class="B C"/><path d="M436.925 650.818c0 5.671-5.49 10.315-12.265 10.372s-12.271-4.434-12.27-10.03 5.496-10.236 12.269-10.372 12.266 4.359 12.266 10.03" class="B D"/><g class="C B"><path d="M424.95 644.421l-.221.004c-4.721.088-8.708 3.175-8.708 6.733 0 1.763.942 3.063 1.729 3.85 1.663 1.646 4.25 2.588 6.879 2.546 4.775-.033 8.658-3.058 8.658-6.738 0-1.821-.958-3.146-1.763-3.938-1.6-1.567-3.992-2.458-6.575-2.458m-.417 20.404c-4.579 0-8.908-1.696-11.9-4.663-2.504-2.479-3.879-5.675-3.879-9.004 0-7.546 7.1-13.833 15.833-14.004 4.517-.063 8.988 1.567 12.021 4.542 2.546 2.492 3.95 5.733 3.95 9.121 0 7.654-7.117 13.933-15.871 14.008h-.154zm-166.71 56.139c-3.771-.1-6.838 2.121-6.838 4.954s3.067 5.242 6.838 5.367 6.829-2.1 6.829-4.954-3.063-5.267-6.829-5.367m0-24.504c-3.771-.046-6.838 2.221-6.838 5.054s3.067 5.192 6.838 5.263 6.829-2.196 6.829-5.054-3.063-5.217-6.829-5.263m0-24.508c-3.771.008-6.838 2.321-6.838 5.154s3.067 5.15 6.838 5.163 6.829-2.3 6.829-5.154-3.063-5.171-6.829-5.163m0-49.013c-3.771.121-6.838 2.521-6.838 5.354s3.067 5.058 6.838 4.963 6.829-2.5 6.829-5.358-3.063-5.079-6.829-4.958m0-24.509c-3.771.175-6.838 2.621-6.838 5.458s3.067 5.017 6.838 4.863 6.829-2.604 6.829-5.463-3.063-5.033-6.829-4.858m30.412 146.754c-3.767-.154-6.829 2.067-6.829 4.95s3.063 5.375 6.829 5.554 6.829-2.042 6.829-4.95-3.063-5.4-6.829-5.554m32.449 1.325c-3.771-.154-6.829 2.108-6.829 5.054s3.058 5.475 6.829 5.65 6.829-2.088 6.829-5.05-3.063-5.5-6.829-5.654m64.888 2.65c-3.767-.154-6.829 2.2-6.829 5.258 0 3.05 3.063 5.675 6.829 5.854s6.829-2.179 6.829-5.258-3.063-5.7-6.829-5.854m32.446 1.325c-3.767-.154-6.833 2.246-6.833 5.358s3.067 5.775 6.833 5.954 6.829-2.225 6.829-5.358-3.063-5.8-6.829-5.954m32.442 1.325c-3.767-.154-6.829 2.292-6.829 5.458s3.063 5.883 6.829 6.058 6.829-2.271 6.829-5.458-3.063-5.904-6.829-6.058"/><path d="M257.822 647.442c-3.771.067-6.838 2.429-6.838 5.263s3.067 5.1 6.838 5.058 6.829-2.4 6.829-5.258-3.063-5.129-6.829-5.063m95.301 100.392c-3.767-.154-6.829 2.158-6.829 5.154s3.063 5.579 6.829 5.754 6.833-2.133 6.833-5.154-3.067-5.6-6.833-5.754"/></g><path d="M1106.532 411.439c.002 7.743-5.49 14.567-12.264 15.246s-12.272-4.987-12.27-12.65 5.494-14.488 12.269-15.242 12.268 4.907 12.265 12.647" class="B D"/><g class="C B"><path d="M1095.459 402.354a7.46 7.46 0 0 0-.8.042c-4.896.55-9.029 5.879-9.029 11.638 0 2.938 1.067 5.588 2.921 7.271a6.89 6.89 0 0 0 5.35 1.767c4.871-.492 9-5.817 9-11.629 0-2.992-1.083-5.671-2.954-7.35-1.275-1.146-2.821-1.738-4.488-1.738m-2.3 28.025c-3.513 0-6.829-1.283-9.479-3.683-3.383-3.058-5.321-7.675-5.321-12.663 0-9.604 6.804-17.888 15.492-18.858 4.05-.463 7.933.8 10.942 3.496 3.417 3.058 5.375 7.717 5.375 12.771 0 9.538-6.975 17.996-15.55 18.863-.479.046-.975.075-1.458.075m-44.492 17.665c-3.767.35-6.838 4.042-6.838 8.238s3.071 7.342 6.838 7.013 6.829-4.029 6.829-8.246-3.063-7.354-6.829-7.004"/><path d="M1048.668 411.838c-3.767.408-6.838 4.146-6.838 8.338s3.071 7.288 6.838 6.904 6.829-4.121 6.829-8.338-3.063-7.313-6.829-6.904m0-36.217c-3.767.463-6.838 4.246-6.838 8.438s3.071 7.242 6.838 6.804 6.829-4.221 6.829-8.442-3.063-7.263-6.829-6.8m0-72.427c-3.767.575-6.838 4.446-6.838 8.642s3.071 7.154 6.838 6.6 6.829-4.425 6.829-8.642-3.063-7.175-6.829-6.6m0-36.216c-3.767.629-6.838 4.55-6.838 8.742s3.071 7.117 6.838 6.508 6.829-4.533 6.829-8.75-3.063-7.129-6.829-6.5m30.412 212.606c-3.767.3-6.829 3.992-6.829 8.238s3.063 7.471 6.829 7.192 6.829-3.967 6.829-8.233-3.063-7.496-6.829-7.196m32.45-2.58c-3.767.3-6.829 4.033-6.829 8.338s3.063 7.571 6.829 7.296 6.829-4.013 6.829-8.338-3.063-7.596-6.829-7.296m64.888-5.155c-3.767.3-6.829 4.125-6.829 8.542s3.063 7.771 6.829 7.496 6.829-4.1 6.829-8.538-3.063-7.8-6.829-7.5m32.445-2.579c-3.767.3-6.838 4.171-6.838 8.642s3.071 7.875 6.838 7.596c3.767-.271 6.829-4.146 6.829-8.638s-3.063-7.9-6.829-7.6m32.442-2.575c-3.767.3-6.829 4.217-6.829 8.742s3.063 7.975 6.829 7.7 6.829-4.196 6.829-8.742-3.063-8-6.829-7.7"/><path d="M1048.668 339.402c-3.767.521-6.838 4.354-6.838 8.55s3.071 7.196 6.838 6.7 6.829-4.321 6.829-8.542-3.063-7.229-6.829-6.708m95.3 135.023c-3.767.3-6.829 4.079-6.829 8.438s3.063 7.675 6.829 7.396 6.838-4.054 6.838-8.438-3.071-7.696-6.838-7.396"/></g><path d="M1013.18 1111.294l-263.621-47.556.001-258.264 263.619 15.849v289.97z" class="B D"/><path d="M754.405 1059.684l253.929 45.804v-279.6l-253.929-15.271v249.067zm263.625 57.408l-273.313-49.308V800.33l273.313 16.433v300.329z" class="B E"/><path d="M790.121 993.759a4.86 4.86 0 0 1-4.608-3.342c-.833-2.538.558-5.279 3.104-6.117l39.042-13.104 59.858-84.525 2.575-3.742 3.9 2.321 60.908 37.017 1.421 1.342 29.017 42.133c1.504 2.217.938 5.225-1.279 6.733a4.84 4.84 0 0 1-6.725-1.279l-28.396-41.229-56.008-34.067-58.333 82.242-.9 1.229-1.442.492-40.629 13.658a4.97 4.97 0 0 1-1.504.238" class="B C"/><path d="M842.918 978.302c.001 6.925-5.491 11.773-12.266 10.822s-12.272-7.278-12.27-14.126 5.494-11.701 12.271-10.826 12.265 7.205 12.266 14.13" class="B D"/><path d="M829.088 967.705c-1.792 0-3.433.588-4.704 1.7-1.525 1.342-2.367 3.333-2.367 5.583 0 5.017 4.183 9.842 9.133 10.533 2.179.317 4.233-.242 5.733-1.55 1.542-1.346 2.396-3.358 2.396-5.667 0-5.067-4.167-9.892-9.092-10.525a8.27 8.27 0 0 0-1.1-.075m3.275 25.171c-.733 0-1.475-.058-2.225-.158-8.621-1.204-15.388-8.992-15.388-17.729 0-4.371 1.713-8.296 4.838-11.033 3.113-2.738 7.258-3.917 11.525-3.388 8.658 1.129 15.433 8.917 15.433 17.738 0 4.446-1.742 8.408-4.9 11.158-2.575 2.233-5.813 3.413-9.283 3.413" class="B C"/><path d="M903.777 891.939c-.002 7.118-5.492 12.337-12.268 11.669-6.775-.677-12.27-6.925-12.271-13.969.002-7.035 5.497-12.257 12.271-11.664s12.268 6.85 12.267 13.964" class="B D"/><path d="M890.472 881.559c-1.904 0-3.667.671-5.038 1.921-1.654 1.517-2.563 3.713-2.563 6.163 0 5.213 4.042 9.854 9 10.346 2.1.233 4.154-.438 5.675-1.813 1.679-1.513 2.596-3.725 2.596-6.233 0-5.263-4.017-9.908-8.954-10.354-.246-.017-.479-.029-.717-.029m2.221 25.733c-.508 0-1.021-.017-1.542-.075-8.575-.854-15.546-8.733-15.546-17.575 0-4.517 1.75-8.613 4.917-11.517 3.058-2.804 7.083-4.092 11.308-3.775 8.596.775 15.579 8.658 15.579 17.592 0 4.513-1.817 8.754-4.979 11.621-2.683 2.433-6.104 3.729-9.738 3.729" class="B C"/><path d="M964.154 927.552c-.001 7.303-5.492 12.603-12.267 11.849-6.774-.762-12.271-7.233-12.27-14.457s5.497-12.531 12.272-11.853 12.266 7.158 12.265 14.461" class="B D"/><g class="C B"><path d="M950.73 916.672c-1.813 0-3.496.633-4.817 1.838-1.713 1.546-2.663 3.833-2.663 6.433 0 5.333 4.133 10.288 9.038 10.838 2.046.254 4.042-.367 5.546-1.7 1.733-1.554 2.692-3.875 2.692-6.525 0-5.383-4.129-10.35-9.004-10.842a7.2 7.2 0 0 0-.792-.042m2.458 26.438c-.567 0-1.138-.042-1.713-.1-8.546-.954-15.492-9.063-15.492-18.067 0-4.617 1.842-8.921 5.054-11.829 3.054-2.763 7.096-4.079 11.204-3.633 8.575.858 15.55 8.975 15.55 18.075 0 4.683-1.867 9.038-5.113 11.938a14.14 14.14 0 0 1-9.492 3.617m-168.131 54.594c-3.767-.558-6.838 2.029-6.838 5.771s3.071 7.254 6.838 7.833 6.829-2.017 6.829-5.779-3.063-7.271-6.829-7.825"/><path d="M785.055 965.392c-3.767-.496-6.838 2.138-6.838 5.875s3.071 7.204 6.838 7.729 6.829-2.113 6.829-5.879-3.063-7.225-6.829-7.725m0-32.312c-3.767-.442-6.838 2.233-6.838 5.975s3.071 7.158 6.838 7.625 6.829-2.213 6.829-5.975-3.063-7.183-6.829-7.625m0-64.617c-3.767-.333-6.838 2.433-6.838 6.175s3.071 7.071 6.838 7.425 6.829-2.413 6.829-6.179-3.063-7.092-6.829-7.421m0-32.316c-3.767-.275-6.838 2.538-6.838 6.279s3.071 7.029 6.838 7.329 6.829-2.521 6.829-6.288-3.063-7.046-6.829-7.321m30.408 196.751c-3.767-.608-6.829 1.979-6.829 5.771s3.063 7.383 6.829 8.017 6.829-1.958 6.829-5.775-3.063-7.404-6.829-8.013m32.446 5.225c-3.767-.608-6.829 2.025-6.829 5.875s3.063 7.488 6.829 8.117 6.829-2 6.829-5.875-3.063-7.508-6.829-8.117m64.896 10.454c-3.767-.608-6.829 2.117-6.829 6.075s3.063 7.692 6.829 8.321 6.829-2.092 6.829-6.079-3.063-7.708-6.829-8.317m32.446 5.229c-3.767-.608-6.838 2.158-6.838 6.171 0 4.021 3.071 7.796 6.838 8.425s6.829-2.138 6.829-6.175-3.063-7.813-6.829-8.421m32.441 5.225c-3.767-.608-6.829 2.204-6.829 6.279s3.063 7.888 6.829 8.521 6.829-2.183 6.829-6.279-3.063-7.913-6.829-8.521"/><path d="M785.055 900.772c-3.767-.392-6.838 2.342-6.838 6.083s3.071 7.113 6.838 7.525c3.767.404 6.829-2.317 6.829-6.079s-3.063-7.142-6.829-7.529m95.3 142.579c-3.767-.608-6.829 2.067-6.829 5.975s3.063 7.588 6.829 8.213c3.767.633 6.838-2.042 6.838-5.971s-3.071-7.608-6.838-8.217"/></g><path d="M52.073 820.22c-.001 4.484-5.492 7.541-12.268 6.835-6.779-.714-12.272-4.86-12.27-9.269s5.488-7.462 12.268-6.835c6.778.639 12.267 4.788 12.27 9.269" class="B D"/><path d="M38.042 814.501c-2.992 0-5.117.929-6.096 1.821-.775.704-.775 1.279-.775 1.463 0 1.917 3.508 5.071 9.008 5.65 3.692.392 6.325-.663 7.45-1.675.808-.729.808-1.338.808-1.542 0-1.963-3.496-5.129-8.975-5.642-.492-.05-.967-.075-1.421-.075m3.663 16.279c-.754 0-1.513-.042-2.283-.117-8.7-.917-15.521-6.571-15.521-12.879 0-2.554 1.121-4.988 3.154-6.838 3.017-2.75 7.925-4.063 13.088-3.617 8.729.829 15.563 6.483 15.563 12.888 0 2.613-1.138 5.079-3.217 6.946-2.579 2.325-6.5 3.617-10.783 3.617" class="B C"/><path d="M112.932 813.316c-.001 4.669-5.492 7.924-12.269 7.272s-12.269-4.907-12.268-9.497c-.001-4.598 5.494-7.853 12.27-7.276s12.268 4.828 12.267 9.501" class="B D"/><path d="M99.1 807.38c-2.971 0-5.092.942-6.146 1.913-.925.846-.925 1.558-.925 1.8 0 2.363 3.846 5.383 8.988 5.879 3.567.333 6.133-.692 7.325-1.775.954-.867.954-1.633.954-1.883 0-2.417-3.821-5.446-8.938-5.879-.433-.042-.85-.054-1.258-.054m3.308 16.925a19.75 19.75 0 0 1-2.092-.104c-8.721-.838-15.554-6.6-15.554-13.108 0-2.675 1.163-5.217 3.275-7.154 3.067-2.825 7.763-4.2 12.938-3.75 8.742.746 15.592 6.508 15.592 13.125 0 2.729-1.183 5.308-3.338 7.263-2.658 2.413-6.521 3.729-10.821 3.729" class="B C"/><path d="M173.308 843.448c-.001 4.856-5.491 8.178-12.266 7.42s-12.272-5.252-12.271-10.028 5.496-8.106 12.27-7.424 12.267 5.176 12.267 10.032" class="B D"/><path d="M159.313 836.967c-2.421 0-4.596.654-5.883 1.821-.683.625-1.021 1.292-1.021 2.05 0 2.55 3.867 5.838 9.038 6.421 2.879.329 5.646-.321 7.171-1.683.713-.633 1.058-1.333 1.058-2.129 0-2.604-3.696-5.879-9-6.413a12.53 12.53 0 0 0-1.363-.067m3.65 17.638a20.95 20.95 0 0 1-2.325-.121c-8.696-.983-15.496-6.975-15.496-13.646 0-2.808 1.208-5.45 3.413-7.438 3.092-2.8 7.763-4.117 12.85-3.6 8.713.875 15.538 6.867 15.538 13.646 0 2.858-1.233 5.546-3.479 7.55-2.617 2.342-6.363 3.608-10.5 3.608M24.619 905.501c-3.767-.608-6.829.875-6.829 3.308s3.063 4.925 6.829 5.554 6.829-.854 6.829-3.313-3.063-4.942-6.829-5.55m32.446 5.226c-3.767-.608-6.829.925-6.829 3.413s3.063 5.021 6.829 5.654 6.829-.9 6.829-3.413-3.063-5.046-6.829-5.654m64.889 10.454c-3.767-.608-6.829 1.013-6.829 3.613s3.063 5.225 6.829 5.854 6.829-.988 6.829-3.613-3.058-5.246-6.829-5.854m32.448 5.229c-3.767-.608-6.833 1.054-6.833 3.713s3.067 5.325 6.833 5.954 6.829-1.033 6.829-3.708c0-2.683-3.063-5.35-6.829-5.958m32.443 5.224c-3.771-.608-6.829 1.104-6.829 3.817s3.058 5.425 6.829 6.054 6.829-1.079 6.829-3.813-3.063-5.45-6.829-6.058m-97.337-15.679c-3.767-.608-6.829.963-6.829 3.513 0 2.542 3.063 5.121 6.829 5.754s6.833-.946 6.833-3.513-3.067-5.146-6.833-5.754m1158.118 126.163a4.84 4.84 0 0 1-4.533-3.133l-31.171-81.588-57.838-44.983-57.683 15.013-39.854 28.938a4.85 4.85 0 0 1-6.754-1.138c-1.558-2.175-1.042-5.204 1.133-6.758l40.479-29.4 1.7-.817 60.758-15.813 2.304-.625 1.892 1.45 60.908 47.367 1.033.821.479 1.221 31.679 82.888a4.85 4.85 0 0 1-2.821 6.246 4.96 4.96 0 0 1-1.713.313" class="C B"/><path d="M1106.533 924.851c.002 7.738-5.493 13.444-12.268 12.729-6.772-.706-12.269-7.5-12.269-15.166s5.498-13.364 12.272-12.728 12.264 7.424 12.265 15.166" class="B D"/><path d="M1093.226 913.267c-2.158 0-3.708.975-4.654 1.833-1.871 1.708-2.942 4.375-2.942 7.317 0 5.746 4.125 11.038 9.008 11.55 1.996.217 3.813-.4 5.3-1.733 1.883-1.692 2.963-4.383 2.963-7.383 0-5.8-4.117-11.092-8.983-11.554-.238-.021-.471-.029-.692-.029m2.171 28.004c-.504 0-1.004-.017-1.517-.075-8.708-.913-15.517-9.163-15.517-18.779 0-4.988 1.933-9.613 5.317-12.692 3.008-2.733 6.767-4.096 10.921-3.663 8.583.817 15.567 9.238 15.567 18.788 0 5.054-1.958 9.708-5.367 12.788-2.638 2.375-5.933 3.633-9.404 3.633" class="B C"/><path d="M1167.396 908.912c.001 7.928-5.492 13.827-12.269 13.171-6.773-.648-12.269-7.543-12.268-15.396s5.494-13.756 12.269-13.175c6.776.573 12.267 7.468 12.268 15.4" class="B D"/><path d="M1154.205 897.101c-2.15 0-3.692.983-4.646 1.867-1.95 1.788-3.067 4.6-3.067 7.721 0 5.917 4.117 11.313 8.983 11.783 2.392.221 4.163-.821 5.183-1.758 1.967-1.792 3.096-4.629 3.096-7.8 0-5.975-4.096-11.379-8.942-11.783a7.61 7.61 0 0 0-.608-.029m1.942 28.667c-.458 0-.908-.017-1.371-.067-8.575-.821-15.554-9.35-15.554-19.013 0-5.15 1.979-9.917 5.425-13.079 2.992-2.742 6.846-4.021 10.792-3.725 8.588.733 15.583 9.271 15.583 19.029 0 5.217-1.992 10.013-5.467 13.175-2.65 2.4-5.946 3.679-9.408 3.679" class="B C"/><path d="M1227.771 955.586c-.004 8.116-5.49 14.082-12.268 13.319-6.775-.754-12.273-7.887-12.273-15.928s5.499-14.006 12.272-13.319 12.268 7.816 12.268 15.928" class="B D"/><g class="C B"><path d="M1214.447 943.238c-2.038 0-3.513.929-4.429 1.763-2.008 1.804-3.154 4.713-3.154 7.975 0 6.125 4.146 11.775 9.05 12.325 2.346.229 4.058-.758 5.05-1.65 2.017-1.804 3.171-4.738 3.171-8.063 0-6.179-4.117-11.821-8.988-12.313-.25-.029-.475-.038-.7-.038m2.213 29.379a13.88 13.88 0 0 1-1.563-.088c-8.696-.983-15.5-9.579-15.5-19.554 0-5.317 2.025-10.192 5.546-13.371 2.979-2.7 6.767-3.954 10.733-3.563 8.708.871 15.529 9.467 15.529 19.546 0 5.388-2.038 10.3-5.592 13.475-2.588 2.321-5.796 3.554-9.154 3.554m-167.991 63.898c-3.767-.558-6.838 2.396-6.838 6.592s3.071 8.079 6.838 8.654 6.829-2.383 6.829-6.6-3.063-8.092-6.829-8.646"/><path d="M1048.668 1000.301c-3.767-.5-6.838 2.504-6.838 6.692 0 4.196 3.071 8.029 6.838 8.55s6.829-2.479 6.829-6.696-3.063-8.046-6.829-8.546m0-36.213c-3.767-.442-6.838 2.6-6.838 6.796s3.071 7.979 6.838 8.442c3.767.471 6.829-2.575 6.829-6.796 0-4.213-3.063-8-6.829-8.442m0-72.429c-3.767-.329-6.838 2.804-6.838 7s3.071 7.888 6.838 8.242 6.829-2.779 6.829-6.996-3.063-7.913-6.829-8.246m0-36.212c-3.767-.275-6.838 2.904-6.838 7.1s3.071 7.85 6.838 8.15 6.829-2.892 6.829-7.108-3.063-7.867-6.829-8.142m30.412 219.916c-3.767-.608-6.829 2.346-6.829 6.596s3.063 8.204 6.829 8.833 6.829-2.321 6.829-6.596c0-4.267-3.063-8.225-6.829-8.833m32.45 5.23c-3.767-.608-6.829 2.392-6.829 6.692s3.063 8.313 6.829 8.938 6.829-2.367 6.829-6.692-3.063-8.329-6.829-8.938m64.888 10.45c-3.767-.608-6.829 2.488-6.829 6.896 0 4.417 3.063 8.513 6.829 9.146s6.829-2.463 6.829-6.9-3.063-8.533-6.829-9.142m32.445 5.225c-3.767-.608-6.838 2.525-6.838 7 0 4.467 3.071 8.608 6.838 9.238s6.829-2.504 6.829-6.996-3.063-8.633-6.829-9.242m32.442 5.225c-3.767-.608-6.829 2.575-6.829 7.1s3.063 8.713 6.829 9.342 6.829-2.55 6.829-7.1-3.063-8.733-6.829-9.342"/><path d="M1048.668 927.867c-3.767-.388-6.838 2.708-6.838 6.904s3.071 7.938 6.838 8.346 6.829-2.679 6.829-6.896-3.063-7.967-6.829-8.354m95.3 157.951c-3.767-.608-6.829 2.438-6.829 6.796s3.063 8.404 6.829 9.038 6.838-2.413 6.838-6.796-3.071-8.429-6.838-9.038"/></g><path d="M485.947 1242.741l-263.616-79.253-.001-194.86 263.619 47.553-.002 226.559z" class="B D"/><path d="M227.175 1159.88l253.925 76.338v-215.992L227.175 974.43v185.45zm263.621 89.379l-273.313-82.171V962.83l273.313 49.296v237.134z" class="B E"/><path d="M456.784 1157.276c-1.783 0-3.5-.979-4.342-2.692l-31.1-61.788-58.463-40.342-58.558 1.683-39.925 13.571a4.85 4.85 0 0 1-6.113-3.104c-.829-2.546.554-5.283 3.1-6.113l40.446-13.754 1.513-.271 60.75-1.763 1.583-.058 1.308.883 60.925 42.046.975.692.546 1.063 31.692 62.954c1.192 2.392.213 5.3-2.188 6.492-.692.342-1.425.5-2.15.5" class="B C"/><path d="M315.684 1052.463c.002 5.294-5.49 8.354-12.266 6.828s-12.269-6.994-12.27-12.216 5.495-8.281 12.272-6.836c6.775 1.453 12.267 6.925 12.264 12.223" class="B D"/><path d="M300.15 1043.53c-1.742 0-3.267.417-4.25 1.208-.75.613-1.117 1.375-1.117 2.342 0 3.092 3.875 7.408 9.433 8.658 2.733.613 5.229.292 6.696-.871.767-.617 1.138-1.4 1.138-2.404 0-3.15-3.854-7.488-9.388-8.663a11.9 11.9 0 0 0-2.513-.271m6.679 19.779c-1.363 0-2.771-.154-4.204-.475-8.475-1.908-15.108-8.829-15.108-15.754 0-3.163 1.35-5.996 3.813-7.988 3.2-2.588 7.904-3.45 12.846-2.408 8.496 1.821 15.146 8.746 15.146 15.779 0 3.217-1.375 6.083-3.867 8.071-2.283 1.829-5.3 2.775-8.625 2.775" class="B C"/><path d="M376.544 1050.618c.002 5.481-5.489 8.743-12.265 7.275s-12.27-7.038-12.27-12.45 5.495-8.669 12.269-7.275 12.268 6.965 12.266 12.449" class="B D"/><path d="M361.204 1041.476c-1.742 0-3.271.442-4.296 1.288-.854.692-1.263 1.563-1.263 2.675 0 3.246 3.858 7.696 9.396 8.9 2.646.579 5.117.208 6.583-.971.858-.688 1.288-1.613 1.288-2.75 0-3.708-4.379-7.871-9.367-8.896-.808-.158-1.592-.246-2.342-.246m6.25 20.396c-1.283 0-2.604-.146-3.946-.438-8.483-1.833-15.133-8.858-15.133-15.996 0-3.292 1.396-6.246 3.938-8.317 3.196-2.604 7.821-3.533 12.692-2.517 8.513 1.742 15.175 8.783 15.175 16.013 0 3.342-1.421 6.333-3.992 8.404-2.317 1.875-5.375 2.85-8.733 2.85" class="B C"/><path d="M436.921 1092.145c.002 5.67-5.49 8.997-12.267 7.419s-12.268-7.38-12.27-12.977 5.495-8.923 12.272-7.422 12.264 7.307 12.265 12.98" class="B D"/><g class="C B"><path d="M421.488 1082.434c-1.654 0-3.117.429-4.113 1.233-.9.717-1.354 1.7-1.354 2.913 0 3.863 4.421 8.279 9.454 9.446 2.579.613 4.992.254 6.429-.879.921-.729 1.383-1.742 1.383-3 0-3.988-4.317-8.3-9.417-9.438-.821-.179-1.625-.275-2.383-.275m6.45 21.154c-1.329 0-2.708-.163-4.1-.483-8.458-1.958-15.083-9.217-15.083-16.525 0-3.425 1.442-6.475 4.067-8.583 3.2-2.575 7.817-3.438 12.617-2.388 8.479 1.883 15.121 9.146 15.121 16.538 0 3.492-1.467 6.575-4.129 8.688-2.279 1.808-5.246 2.754-8.492 2.754m-170.116 15.624c-3.771-1.008-6.838.471-6.838 3.308s3.067 5.979 6.838 7.013 6.829-.458 6.829-3.317-3.063-6-6.829-7.004"/><path d="M257.822 1094.709c-3.771-.954-6.838.575-6.838 3.408s3.067 5.929 6.838 6.908c3.767.971 6.829-.554 6.829-3.417 0-2.854-3.063-5.946-6.829-6.9m0-24.507c-3.771-.896-6.838.675-6.838 3.513 0 2.829 3.067 5.883 6.838 6.804s6.829-.658 6.829-3.513-3.063-5.908-6.829-6.804m0-49.017c-3.771-.783-6.838.879-6.838 3.717 0 2.829 3.067 5.792 6.838 6.6s6.829-.854 6.829-3.713-3.063-5.821-6.829-6.604m0-24.508c-3.771-.729-6.838.979-6.838 3.813s3.067 5.754 6.838 6.508 6.829-.963 6.829-3.821-3.063-5.771-6.829-6.5m30.412 154.075c-3.767-1.063-6.829.425-6.829 3.308s3.063 6.113 6.829 7.196 6.829-.4 6.829-3.308-3.063-6.138-6.829-7.196m32.449 9.125c-3.771-1.058-6.829.467-6.829 3.408s3.058 6.217 6.829 7.3 6.829-.446 6.829-3.413-3.063-6.233-6.829-7.296m64.888 18.259c-3.767-1.063-6.829.558-6.829 3.613s3.063 6.413 6.829 7.5 6.829-.538 6.829-3.613-3.063-6.442-6.829-7.5m32.446 9.129c-3.767-1.063-6.833.604-6.833 3.713s3.067 6.517 6.833 7.6 6.829-.583 6.829-3.717-3.063-6.538-6.829-7.596m32.442 9.13c-3.767-1.063-6.829.646-6.829 3.813s3.063 6.617 6.829 7.704c3.767 1.079 6.829-.629 6.829-3.817s-3.063-6.642-6.829-7.7"/><path d="M257.822 1045.693c-3.771-.842-6.838.779-6.838 3.617s3.067 5.838 6.838 6.704 6.829-.758 6.829-3.617-3.063-5.867-6.829-6.704m95.301 123.308c-3.767-1.058-6.829.517-6.829 3.513s3.063 6.313 6.829 7.396 6.833-.488 6.833-3.508-3.067-6.338-6.833-7.4"/></g><path d="M485.946 1016.183l-263.616-47.554V773.771l263.615 15.853.001 226.558z" class="B D"/><path d="M227.175 964.58l253.925 45.796V794.18l-253.925-15.263V964.58zm263.621 57.396L217.484 972.68V768.634l273.313 16.425v236.917z" class="B E"/><path d="M304.625 910.217l-2.929-1.129-40.504-15.396c-2.504-.933-3.779-3.725-2.842-6.238.938-2.504 3.708-3.763 6.238-2.846l37.671 14.308c22.938-22.792 34.858-35.121 58.475-60.463l2.379-2.554 3.175 1.45 58.938 27.621 29.575-12.988c2.467-1.125 5.304.008 6.404 2.442 1.092 2.442-.004 5.313-2.446 6.4l-31.733 13.908-2.025.871-1.988-.954-57.571-27.033c-22.896 24.533-34.863 36.858-58.588 60.388l-2.229 2.213z" class="B C"/><path d="M315.684 907.256c.002 5.293-5.489 8.821-12.264 7.871s-12.273-5.958-12.273-11.175 5.496-8.749 12.273-7.874 12.267 5.881 12.264 11.178" class="B D"/><path d="M301.384 899.58c-2.158 0-4.079.596-5.325 1.692-.846.75-1.275 1.65-1.275 2.679 0 2.975 3.754 6.817 9.142 7.579 2.763.371 5.288-.179 6.813-1.513.871-.758 1.313-1.683 1.313-2.763 0-3.408-4.254-6.946-9.1-7.575a13.41 13.41 0 0 0-1.567-.1m4.213 19.338c-.875 0-1.775-.058-2.679-.192-8.642-1.213-15.404-7.704-15.404-14.775 0-3.121 1.329-6.013 3.75-8.138 3.117-2.742 7.692-3.958 12.621-3.342 8.658 1.125 15.433 7.617 15.433 14.783 0 3.179-1.354 6.117-3.808 8.25-2.55 2.217-6.067 3.413-9.913 3.413" class="B C"/><path d="M376.548 843.331c-.002 5.482-5.492 9.384-12.267 8.708s-12.274-5.61-12.27-11.021 5.493-9.305 12.267-8.708c6.777.605 12.268 5.538 12.27 11.021" class="B D"/><path d="M362.929 835.884c-2.317 0-4.433.708-5.804 1.963-.983.9-1.479 1.967-1.479 3.171 0 3.529 4.117 6.917 8.996 7.408 2.704.283 5.2-.417 6.758-1.838 1-.904 1.513-2.004 1.513-3.258 0-3.583-4.1-6.971-8.95-7.396-.346-.029-.692-.05-1.033-.05m2.854 19.871c-.617 0-1.242-.029-1.867-.1-8.717-.871-15.538-7.304-15.538-14.638 0-3.233 1.358-6.267 3.842-8.533 3.088-2.838 7.613-4.242 12.379-3.792 8.733.767 15.583 7.2 15.583 14.638 0 3.296-1.388 6.367-3.904 8.642-2.692 2.446-6.446 3.783-10.496 3.783" class="B C"/><path d="M436.924 871.481c.001 5.669-5.493 9.653-12.268 8.899-6.774-.762-12.269-5.913-12.269-11.507s5.498-9.581 12.272-8.899 12.265 5.833 12.265 11.507" class="B D"/><g class="C B"><path d="M423.15 863.53c-2.208 0-4.188.663-5.538 1.883-.729.663-1.588 1.792-1.588 3.454 0 3.733 4.138 7.354 9.038 7.896 2.625.3 5.038-.342 6.608-1.742.742-.663 1.621-1.821 1.621-3.542 0-3.783-4.117-7.4-8.996-7.892-.388-.038-.771-.058-1.146-.058m3.138 20.575c-.671 0-1.35-.033-2.029-.113-8.692-.975-15.504-7.617-15.504-15.125 0-3.375 1.417-6.517 3.979-8.838 3.104-2.804 7.571-4.175 12.292-3.675 8.713.871 15.533 7.517 15.533 15.125 0 3.446-1.433 6.625-4.042 8.954-2.658 2.375-6.308 3.671-10.229 3.671m-168.465 35.985c-3.771-.554-6.838 1.296-6.838 4.129s3.067 5.613 6.838 6.192 6.829-1.279 6.829-4.138-3.063-5.629-6.829-6.183"/><path d="M257.822 895.584c-3.771-.5-6.838 1.396-6.838 4.233 0 2.829 3.067 5.558 6.838 6.083s6.829-1.375 6.829-4.233-3.063-5.588-6.829-6.083m0-24.508c-3.771-.442-6.838 1.496-6.838 4.333s3.067 5.517 6.838 5.983 6.829-1.475 6.829-4.333-3.063-5.542-6.829-5.983m0-49.013c-3.771-.333-6.838 1.696-6.838 4.533s3.067 5.425 6.838 5.783 6.829-1.683 6.829-4.538-3.063-5.45-6.829-5.779m0-24.511c-3.771-.275-6.838 1.804-6.838 4.633 0 2.838 3.067 5.388 6.838 5.688s6.829-1.783 6.829-4.642-3.063-5.404-6.829-5.679m30.412 150.416c-3.767-.608-6.829 1.246-6.829 4.129 0 2.892 3.063 5.746 6.829 6.375s6.829-1.217 6.829-4.133c0-2.908-3.063-5.763-6.829-6.371m32.449 5.23c-3.771-.608-6.829 1.288-6.829 4.233s3.058 5.842 6.829 6.471 6.829-1.263 6.829-4.229-3.063-5.867-6.829-6.475m64.888 10.45c-3.767-.608-6.829 1.379-6.829 4.429 0 3.058 3.063 6.05 6.829 6.679s6.829-1.354 6.829-4.433-3.063-6.067-6.829-6.675m32.446 5.225c-3.767-.608-6.833 1.425-6.833 4.533s3.067 6.146 6.833 6.779 6.829-1.4 6.829-4.533-3.063-6.171-6.829-6.779m32.442 5.225c-3.767-.608-6.829 1.475-6.829 4.638s3.063 6.246 6.829 6.879 6.829-1.446 6.829-4.638-3.063-6.271-6.829-6.879"/><path d="M257.822 846.567c-3.771-.388-6.838 1.604-6.838 4.438s3.067 5.471 6.838 5.883 6.829-1.575 6.829-4.438c0-2.854-3.063-5.496-6.829-5.883m95.301 111.85c-3.767-.608-6.829 1.333-6.829 4.333s3.063 5.946 6.829 6.575 6.833-1.308 6.833-4.333c0-3.017-3.067-5.967-6.833-6.575m478.678 291.142l-3.563-2.079-40.521-23.433c-2.329-1.325-3.133-4.288-1.8-6.608 1.329-2.346 4.3-3.121 6.608-1.8l37.025 21.392c22.638-27.671 34.563-42.75 58.117-73.404l2.792-3.633 3.788 2.592 58.613 40.858 29.05-13.763c2.379-1.163 5.313-.15 6.467 2.263a4.84 4.84 0 0 1-2.263 6.467l-31.721 15.008-2.554 1.192-2.292-1.638-56.996-39.804c-22.663 29.467-34.621 44.508-58.125 73.192l-2.625 3.2z"/></g><path d="M842.918 1247.793c-.003 6.922-5.495 11.107-12.268 9.341s-12.269-8.745-12.271-15.6c.001-6.85 5.497-11.034 12.273-9.344s12.266 8.675 12.266 15.603" class="B D"/><path d="M827.705 1235.451c-1.379 0-2.613.379-3.575 1.133-1.367 1.071-2.113 2.825-2.113 4.954 0 5.204 4.375 10.729 9.55 12.075 2.196.596 4.175.296 5.583-.796 1.375-1.067 2.129-2.85 2.129-5.025 0-5.263-4.354-10.788-9.513-12.079-.708-.175-1.408-.263-2.063-.263m5.967 25.717c-1.292 0-2.613-.171-3.942-.513-8.392-2.188-14.979-10.579-14.979-19.117 0-4.413 1.742-8.208 4.9-10.679 3.179-2.483 7.504-3.271 11.879-2.204 8.421 2.113 15.017 10.517 15.017 19.138 0 4.475-1.758 8.3-4.958 10.771-2.213 1.713-4.975 2.604-7.917 2.604" class="B C"/><path d="M903.775 1169.751c.001 7.116-5.489 11.676-12.264 10.181-6.777-1.486-12.27-8.403-12.271-15.439s5.495-11.602 12.269-10.184 12.268 8.331 12.266 15.442" class="B D"/><path d="M889.097 1157.684c-1.492 0-2.838.446-3.9 1.304-1.504 1.221-2.325 3.175-2.325 5.504 0 5.325 4.313 10.779 9.417 11.892 2.092.458 4.067.1 5.508-1.05 1.513-1.221 2.346-3.196 2.346-5.583 0-5.375-4.296-10.825-9.379-11.883-.567-.125-1.125-.183-1.667-.183m4.979 26.171c-1.096 0-2.217-.125-3.35-.371-8.483-1.854-15.121-10.2-15.121-18.992 0-4.488 1.821-8.546 5.004-11.129s7.296-3.525 11.642-2.613c8.508 1.779 15.163 10.125 15.163 19 0 4.563-1.85 8.663-5.063 11.254-2.35 1.875-5.208 2.85-8.275 2.85" class="B C"/><path d="M964.157 1211.625c-.001 7.297-5.492 11.94-12.267 10.37s-12.27-8.707-12.273-15.933 5.497-11.866 12.271-10.369 12.267 8.63 12.269 15.932" class="B D"/><g class="C B"><path d="M949.397 1199.051c-1.421 0-2.708.417-3.733 1.242-1.55 1.25-2.413 3.3-2.413 5.771 0 5.529 4.325 11.196 9.458 12.388 2.042.492 3.983.133 5.383-.992 1.571-1.242 2.433-3.325 2.433-5.838 0-5.588-4.317-11.258-9.429-12.383a7.81 7.81 0 0 0-1.7-.188m5.113 26.888a15.02 15.02 0 0 1-3.45-.408c-8.45-1.958-15.075-10.513-15.075-19.467 0-4.65 1.871-8.821 5.129-11.433 3.171-2.546 7.288-3.425 11.554-2.488 8.479 1.875 15.125 10.429 15.125 19.479 0 4.708-1.883 8.913-5.175 11.533-2.313 1.838-5.113 2.783-8.108 2.783m-169.454 34.296c-3.767-1.008-6.838 1.208-6.838 4.946 0 3.746 3.071 7.629 6.838 8.663s6.829-1.196 6.829-4.963-3.063-7.642-6.829-8.646"/><path d="M785.055 1227.926c-3.767-.954-6.838 1.308-6.838 5.05s3.071 7.571 6.838 8.55 6.829-1.292 6.829-5.054-3.063-7.592-6.829-8.546m0-32.317c-3.767-.896-6.838 1.417-6.838 5.154s3.071 7.529 6.838 8.45 6.829-1.392 6.829-5.158-3.063-7.546-6.829-8.446m0-64.621c-3.767-.783-6.838 1.617-6.838 5.354s3.071 7.438 6.838 8.246 6.829-1.592 6.829-5.354-3.063-7.463-6.829-8.246m0-32.312c-3.767-.729-6.838 1.717-6.838 5.458s3.071 7.396 6.838 8.15 6.829-1.7 6.829-5.463-3.063-7.413-6.829-8.146m30.408 200.409c-3.767-1.063-6.829 1.158-6.829 4.95s3.063 7.754 6.829 8.842c3.767 1.079 6.829-1.142 6.829-4.958s-3.063-7.775-6.829-8.833m32.446 9.129c-3.767-1.058-6.829 1.204-6.829 5.054s3.063 7.858 6.829 8.938 6.829-1.179 6.829-5.05-3.063-7.879-6.829-8.942"/><path d="M785.055 1163.297c-3.767-.842-6.838 1.517-6.838 5.263 0 3.738 3.071 7.479 6.838 8.346s6.829-1.496 6.829-5.258-3.063-7.513-6.829-8.35m95.3 154.041c-3.767-1.058-6.829 1.254-6.829 5.154 0 3.908 3.063 7.954 6.829 9.042s6.838-1.225 6.838-5.154-3.071-7.979-6.838-9.042m168.313-131.446c-3.767-.783-6.838 1.983-6.838 6.175s3.071 8.258 6.838 9.067 6.829-1.958 6.829-6.175-3.063-8.283-6.829-9.067m0-36.217c-3.767-.729-6.838 2.088-6.838 6.279s3.071 8.217 6.838 8.971 6.829-2.067 6.829-6.288c0-4.213-3.063-8.233-6.829-8.963m0 72.426c-3.767-.838-6.838 1.892-6.838 6.088s3.071 8.3 6.838 9.163 6.829-1.858 6.829-6.075-3.063-8.333-6.829-9.175"/></g><path d="M52.072 1046.118c-.002 4.476-5.493 6.683-12.268 4.921-6.782-1.768-12.274-6.773-12.272-11.18s5.492-6.61 12.271-4.916c6.776 1.69 12.268 6.694 12.269 11.175" class="B D"/><path d="M35.425 1038.001c-1.75 0-3.071.4-3.767.938-.408.325-.488.588-.488.917 0 2.113 3.721 6.146 9.55 7.658 3.438.908 6.096.425 7.2-.404.429-.338.517-.638.517-.996 0-2.146-3.713-6.2-9.517-7.65-1.292-.321-2.471-.463-3.496-.463m8.896 17.279c-1.717 0-3.55-.242-5.433-.725-8.546-2.233-14.988-8.554-14.988-14.7 0-2.629 1.167-4.988 3.279-6.642 3.183-2.479 8.108-3.142 13.496-1.808 8.571 2.15 15.029 8.471 15.029 14.708 0 2.679-1.183 5.071-3.333 6.738-2.079 1.608-4.875 2.429-8.05 2.429" class="B C"/><path d="M112.93 1046.73c.001 4.668-5.493 7.075-12.267 5.379s-12.271-6.801-12.268-11.395 5.493-7.006 12.271-5.378c6.771 1.622 12.264 6.722 12.264 11.394" class="B D"/><path d="M96.579 1038.455c-1.883 0-3.221.471-3.917 1.021-.558.446-.633.863-.633 1.242 0 2.292 3.625 6.388 9.521 7.875 3.571.871 6.042.254 7.083-.55a1.53 1.53 0 0 0 .663-1.317c0-2.638-4.054-6.558-9.479-7.863-1.208-.288-2.288-.408-3.238-.408m8.3 17.838c-1.621 0-3.338-.217-5.096-.65-8.571-2.163-15.025-8.579-15.025-14.925 0-2.746 1.208-5.217 3.404-6.946 3.188-2.521 8.063-3.258 13.346-1.971 8.588 2.054 15.054 8.479 15.054 14.925 0 2.8-1.229 5.3-3.458 7.042-2.133 1.667-4.996 2.525-8.225 2.525" class="B C"/><path d="M173.311 1032.404c-.002 4.857-5.493 7.522-12.267 5.945-6.779-1.57-12.272-6.723-12.274-11.504s5.496-7.44 12.271-5.944 12.267 6.65 12.27 11.503" class="B D"/><path d="M157.392 1024.117c-1.996 0-3.442.542-4.183 1.133-.554.45-.8.929-.8 1.592 0 2.729 4.042 6.713 9.45 7.967 3.463.8 5.871.146 6.992-.733.571-.458.825-.967.825-1.667 0-2.775-4.029-6.767-9.421-7.958a13.44 13.44 0 0 0-2.863-.333m7.454 18.321c-1.483 0-3.038-.179-4.625-.546-8.458-1.958-15.079-8.575-15.079-15.05 0-2.854 1.246-5.438 3.513-7.258 3.192-2.554 8.008-3.367 13.167-2.233 8.479 1.875 15.121 8.488 15.121 15.058 0 2.913-1.267 5.525-3.571 7.354-2.213 1.771-5.196 2.675-8.525 2.675M24.619 1076.58c-3.767-1.058-6.829.058-6.829 2.492s3.063 5.288 6.829 6.371 6.829-.033 6.829-2.492-3.063-5.308-6.829-6.371m32.446 9.129c-3.767-1.063-6.829.096-6.829 2.588s3.063 5.392 6.829 6.475 6.829-.079 6.829-2.588c0-2.517-3.063-5.417-6.829-6.475m64.889 18.254c-3.767-1.058-6.829.192-6.829 2.796s3.063 5.592 6.829 6.671c3.771 1.088 6.829-.167 6.829-2.788s-3.058-5.617-6.829-6.679m32.448 9.134c-3.767-1.063-6.833.238-6.833 2.888 0 2.658 3.067 5.7 6.833 6.783s6.829-.213 6.829-2.892-3.063-5.717-6.829-6.779m32.443 9.125c-3.771-1.058-6.829.279-6.829 2.996s3.058 5.792 6.829 6.879 6.829-.258 6.829-2.996-3.063-5.817-6.829-6.879m-97.337-27.384c-3.767-1.063-6.829.146-6.829 2.692s3.063 5.492 6.829 6.575 6.833-.121 6.833-2.692-3.067-5.517-6.833-6.575" class="C B"/><path d="M376.547 1269.363c0 5.483-5.494 8.066-12.267 5.763s-12.271-8.555-12.27-13.963c-.001-5.413 5.495-7.991 12.267-5.763s12.27 8.48 12.27 13.963" class="B D"/><path d="M359.617 1258.234c-1.363 0-2.375.329-2.983.775-.425.304-.988.863-.988 2.158 0 3.4 4.021 8.554 9.8 10.517 3.167 1.067 5.4.65 6.458-.096.438-.313 1.008-.883 1.008-2.225 0-3.454-4.013-8.613-9.767-10.508-1.35-.442-2.533-.621-3.529-.621m9.413 21.371c-1.879 0-3.879-.342-5.921-1.033-8.263-2.813-14.729-10.45-14.729-17.404 0-3.325 1.417-6.179 3.992-8.046 3.313-2.396 8.058-2.788 13.042-1.175 8.279 2.721 14.771 10.375 14.771 17.417 0 3.375-1.438 6.267-4.042 8.129-1.95 1.4-4.408 2.113-7.113 2.113" class="B C"/><path d="M436.924 1312.813c.001 5.668-5.492 8.331-12.268 5.945s-12.272-8.866-12.272-14.458 5.497-8.254 12.273-5.948c6.774 2.315 12.264 8.788 12.267 14.461" class="B D"/><path d="M419.996 1301.151c-1.317 0-2.3.321-2.896.758-.725.521-1.079 1.292-1.079 2.392 0 3.575 4.042 8.979 9.842 11.025 3.088 1.079 5.292.692 6.329-.054.738-.521 1.096-1.329 1.096-2.463 0-4.092-4.583-9.238-9.808-11.025-1.329-.454-2.5-.633-3.483-.633m9.421 22.108c-1.896 0-3.913-.35-5.967-1.079-8.242-2.896-14.696-10.75-14.696-17.879 0-3.454 1.458-6.404 4.117-8.308 3.304-2.367 8.029-2.771 12.958-1.079 8.258 2.821 14.729 10.683 14.729 17.896 0 3.513-1.483 6.492-4.167 8.392-1.929 1.367-4.333 2.058-6.975 2.058m-171.595-102.951c-3.771-1.238-6.838.058-6.838 2.892s3.067 6.163 6.838 7.425 6.829-.033 6.829-2.896c0-2.854-3.063-6.183-6.829-7.421m0-24.508c-3.771-1.183-6.838.154-6.838 2.992s3.067 6.125 6.838 7.329 6.829-.146 6.829-3-3.063-6.142-6.829-7.321m0 49.012c-3.771-1.292-6.838-.038-6.838 2.796s3.067 6.208 6.838 7.529 6.829.063 6.829-2.792c0-2.863-3.063-6.238-6.829-7.533" class="C B"/><path d="M579.303 1418.354c-.001 6.11-5.492 8.967-12.268 6.388s-12.271-9.567-12.269-15.597c-.003-6.04 5.49-8.901 12.27-6.392 6.775 2.498 12.266 9.485 12.268 15.601" class="B D"/><path d="M562.33 1405.472c-1.058 0-1.967.238-2.638.7-.863.604-1.288 1.6-1.288 2.971 0 4.488 4.633 10.192 9.917 12.204 2.471.942 4.721.95 6.029.042.871-.604 1.313-1.625 1.313-3.033 0-4.633-4.533-10.213-9.888-12.204-1.229-.45-2.413-.679-3.446-.679m9.471 23.85c-1.925 0-3.983-.396-6.063-1.188-8.188-3.113-14.608-11.458-14.608-18.992 0-3.775 1.563-6.946 4.4-8.933 3.329-2.308 7.954-2.638 12.767-.871 8.208 3.038 14.638 11.388 14.638 19.017 0 3.833-1.583 7.038-4.458 9.017-1.883 1.296-4.175 1.95-6.675 1.95" class="B C"/><path d="M640.162 1421.086c0 6.299-5.491 9.368-12.265 6.857-6.777-2.516-12.272-9.599-12.273-15.824.004-6.227 5.499-9.294 12.273-6.854s12.266 9.517 12.265 15.821" class="B D"/><path d="M623.417 1408.064c-1.083 0-2.017.25-2.717.729-.958.675-1.442 1.788-1.442 3.325 0 4.738 4.538 10.421 9.9 12.413 2.375.883 4.575.871 5.917-.058 1.2-.842 1.454-2.304 1.454-3.383 0-4.8-4.521-10.479-9.871-12.413-1.142-.404-2.25-.613-3.242-.613m9.017 24.383c-1.854 0-3.825-.363-5.808-1.1-8.208-3.05-14.633-11.5-14.633-19.229 0-3.921 1.613-7.217 4.533-9.267 3.325-2.338 7.913-2.688 12.596-1.004 8.238 2.963 14.683 11.413 14.683 19.242 0 3.975-1.633 7.296-4.583 9.35-1.913 1.333-4.254 2.008-6.788 2.008" class="B C"/><path d="M700.543 1404.249c0 6.487-5.496 9.808-12.27 7.419-6.772-2.383-12.271-9.52-12.267-15.927-.003-6.413 5.492-9.734 12.272-7.423 6.772 2.308 12.262 9.443 12.266 15.931" class="B D"/><path d="M684.105 1391.214c-1.125 0-2.108.271-2.858.804-1.333.954-1.604 2.546-1.604 3.721 0 4.892 4.504 10.629 9.842 12.508 2.338.833 4.454.742 5.792-.208 1.342-.942 1.625-2.583 1.625-3.783 0-4.963-4.496-10.679-9.804-12.504-1.058-.358-2.071-.538-2.992-.538m8.4 24.863c-1.754 0-3.592-.321-5.438-.979-8.242-2.904-14.696-11.413-14.696-19.358 0-4.063 1.646-7.488 4.646-9.629 3.296-2.346 7.8-2.817 12.425-1.229 8.267 2.821 14.725 11.329 14.725 19.375 0 4.125-1.663 7.571-4.692 9.721-1.967 1.392-4.371 2.1-6.971 2.1m-171.067-23.935c-3.767-1.404-6.838.121-6.838 3.408s3.071 7.121 6.838 8.55 6.829-.1 6.829-3.408-3.063-7.142-6.829-8.55m0-28.409c-3.767-1.35-6.838.221-6.838 3.508s3.071 7.075 6.838 8.446 6.829-.2 6.829-3.513-3.063-7.096-6.829-8.442m0-56.819c-3.767-1.238-6.838.429-6.838 3.717s3.071 6.979 6.838 8.242 6.829-.404 6.829-3.713-3.063-7.008-6.829-8.246m0-28.409c-3.767-1.183-6.838.525-6.838 3.813s3.071 6.946 6.838 8.15 6.829-.508 6.829-3.821-3.063-6.963-6.829-8.142m0 56.817c-3.767-1.296-6.838.329-6.838 3.617s3.071 7.033 6.838 8.35 6.829-.304 6.829-3.617-3.063-7.054-6.829-8.35m263.617 58.196c-3.767-1.238-6.838.792-6.838 4.538 0 3.738 3.071 7.804 6.838 9.067s6.829-.775 6.829-4.538-3.063-7.825-6.829-9.067m0-32.313c-3.767-1.183-6.838.892-6.838 4.633s3.071 7.771 6.838 8.975 6.829-.879 6.829-4.646-3.063-7.783-6.829-8.963" class="C B"/><path d="M1013.181 821.324l-263.619-15.851.002-258.261 263.615-15.848.001 289.96z" class="B G"/><path d="M754.405 800.913l253.929 15.271V536.505l-253.929 15.271v249.138zm263.625 25.558l-273.313-16.438V542.655l273.313-16.438v300.254z" class="B E"/><path d="M984.017 719.701c-1.867 0-3.633-1.079-4.438-2.896l-31.025-69.708-57.521-33.838-58.046 19.938-39.967 30.283a4.87 4.87 0 0 1-6.788-.992 4.84 4.84 0 0 1 .996-6.779l40.488-30.688 1.417-.754 60.771-20.888 2.092-.742 1.921 1.104 60.942 35.838 1.288.779.621 1.379 31.688 71.167a4.84 4.84 0 0 1-2.488 6.383c-.638.279-1.3.413-1.95.413" class="B F"/><path d="M842.919 629.201c0 6.931-5.494 12.631-12.268 12.736s-12.27-5.368-12.268-12.219 5.495-12.548 12.268-12.728 12.268 5.289 12.268 12.211" class="B G"/><path d="M830.971 620.617l-.229.004c-4.808.129-8.725 4.208-8.725 9.096 0 2.363.908 4.554 2.554 6.179 1.613 1.588 3.646 2.429 6.021 2.404 4.792-.071 8.688-4.154 8.688-9.096 0-2.417-.921-4.642-2.592-6.263a8.12 8.12 0 0 0-5.717-2.325m-.513 24.954c-4.146 0-8.038-1.592-10.988-4.496-3.046-3-4.725-7.038-4.725-11.358 0-8.792 7.092-16.129 15.804-16.363 4.113-.158 8.2 1.446 11.208 4.379 3.083 3.008 4.788 7.075 4.788 11.471 0 8.888-7.108 16.233-15.838 16.367h-.25z" class="B F"/><path d="M903.779 608.202c.002 7.116-5.493 13.018-12.266 13.181s-12.269-5.415-12.273-12.455 5.499-12.939 12.275-13.177 12.263 5.336 12.265 12.452" class="B G"/><path d="M891.917 599.375l-.279.008c-4.833.171-8.767 4.454-8.767 9.542 0 2.508.946 4.813 2.658 6.492 1.604 1.55 3.625 2.408 5.896 2.329 4.808-.117 8.721-4.396 8.721-9.546 0-2.567-.958-4.9-2.7-6.579-1.504-1.454-3.454-2.246-5.529-2.246m-.688 25.642c-4.046 0-7.858-1.558-10.771-4.4-3.133-3.058-4.854-7.208-4.854-11.692 0-8.954 7.075-16.496 15.775-16.808 4.342-.038 8.108 1.375 11.121 4.275 3.171 3.063 4.913 7.254 4.913 11.808 0 9.058-7.1 16.604-15.817 16.813l-.367.004" class="B F"/><path d="M964.154 643.485c.002 7.301-5.491 13.265-12.266 13.322s-12.273-5.755-12.269-12.98 5.496-13.186 12.27-13.322 12.268 5.68 12.265 12.98" class="B G"/><g class="F B"><path d="M952.109 634.138h-.15c-4.808.092-8.708 4.438-8.708 9.688 0 2.633 1.021 5.158 2.804 6.929 1.588 1.583 3.604 2.475 5.796 2.421 4.783-.038 8.675-4.388 8.675-9.692 0-2.692-1.038-5.254-2.842-7.017-1.533-1.508-3.513-2.329-5.575-2.329m-.313 26.304c-4.071 0-7.913-1.604-10.867-4.529-3.142-3.121-4.946-7.529-4.946-12.088 0-9.175 7.096-16.788 15.825-16.958 4.492.121 7.996 1.492 10.967 4.408 3.188 3.125 5.017 7.575 5.017 12.208 0 9.279-7.125 16.883-15.883 16.958h-.113zm-166.741 74.729c-3.767-.1-6.838 2.854-6.838 6.596s3.071 6.888 6.838 7.013a6.57 6.57 0 0 0 6.829-6.6c0-3.767-3.063-6.908-6.829-7.008m0-32.305c-3.767-.046-6.838 2.954-6.838 6.692s3.071 6.838 6.838 6.908a6.68 6.68 0 0 0 6.829-6.696c0-3.763-3.063-6.858-6.829-6.904m0-32.312c-3.767.008-6.838 3.054-6.838 6.796s3.071 6.788 6.838 6.804a6.8 6.8 0 0 0 6.829-6.796 6.81 6.81 0 0 0-6.829-6.804m0-64.625c-3.767.121-6.838 3.258-6.838 7s3.071 6.696 6.838 6.6 6.829-3.238 6.829-7a6.57 6.57 0 0 0-6.829-6.6m0-32.313c-3.767.175-6.838 3.358-6.838 7.1s3.071 6.658 6.838 6.504 6.829-3.342 6.829-7.104-3.063-6.675-6.829-6.5m30.408 193.092c-3.767-.15-6.829 2.804-6.829 6.596s3.063 7.021 6.829 7.196 6.829-2.779 6.829-6.592-3.063-7.046-6.829-7.2m32.446 1.325c-3.767-.154-6.829 2.85-6.829 6.692 0 3.85 3.063 7.121 6.829 7.296s6.829-2.817 6.829-6.692-3.063-7.142-6.829-7.296m64.896 2.65c-3.771-.154-6.829 2.938-6.829 6.896s3.063 7.321 6.829 7.5 6.829-2.913 6.829-6.896-3.063-7.346-6.829-7.5m32.446 1.325c-3.767-.154-6.838 2.983-6.838 7s3.071 7.417 6.838 7.596 6.829-2.958 6.829-7-3.063-7.446-6.829-7.596m32.441 1.325c-3.771-.154-6.829 3.029-6.829 7.1s3.058 7.525 6.829 7.7 6.829-3.004 6.829-7.1-3.063-7.546-6.829-7.7"/><path d="M785.055 638.238c-3.767.067-6.838 3.163-6.838 6.904s3.071 6.742 6.838 6.7 6.829-3.133 6.829-6.896-3.063-6.775-6.829-6.708m95.3 131.117c-3.767-.15-6.829 2.892-6.829 6.8 0 3.9 3.063 7.217 6.829 7.396s6.838-2.867 6.838-6.8c0-3.925-3.071-7.242-6.838-7.396"/></g><path d="M749.563 1321.998l-263.617-79.256-.002-226.564 263.617 47.558.002 258.261z" class="B D"/><path d="M490.792 1239.134l253.921 76.346v-247.692l-253.921-45.808v217.154zm263.613 89.388L481.1 1246.343V1010.38l273.304 49.308v268.834z" class="B E"/><path d="M690.421 1205.468l-3.646-1.6-60.796-26.45-1.496-1.008-58.563-56.646-37.846 13.417c-2.542.879-5.288-.475-6.158-3.008s.483-5.292 3.017-6.154l40.458-14.383 2.821-1.042 2.183 2.063 60.25 58.225 56.388 24.513 29.338-42.913c1.504-2.221 4.521-2.792 6.729-1.317 2.213 1.5 2.813 4.504 1.313 6.733l-31.713 46.304-2.279 3.267z" class="B C"/><path d="M579.301 1116.908c0 6.113-5.49 9.812-12.266 8.264s-12.271-7.69-12.27-13.73 5.489-9.731 12.27-8.263 12.266 7.616 12.266 13.729" class="B D"/><path d="M564.113 1106.497c-1.608 0-3.021.425-4.05 1.258-1.088.871-1.658 2.146-1.658 3.688 0 4.354 4.325 9.025 9.446 10.196 2.425.558 4.675.208 6.133-.967 1.096-.879 1.683-2.175 1.683-3.767 0-4.413-4.304-9.067-9.396-10.171-.75-.163-1.467-.238-2.158-.238m5.925 22.663c-1.238 0-2.517-.15-3.804-.442-8.471-1.942-15.1-9.521-15.1-17.275 0-3.754 1.55-7.079 4.367-9.35 3.2-2.571 7.667-3.483 12.313-2.458 8.479 1.838 15.125 9.425 15.125 17.271 0 3.825-1.571 7.175-4.417 9.458-2.313 1.833-5.275 2.796-8.483 2.796" class="B C"/><path d="M640.166 1175.98c-.004 6.301-5.495 10.03-12.268 8.328s-12.27-8.12-12.273-14.341c.003-6.228 5.498-9.957 12.273-8.331s12.267 8.046 12.268 14.344" class="B D"/><path d="M624.796 1164.884c-1.492 0-2.829.4-3.804 1.175-1.138.892-1.733 2.242-1.733 3.908 0 4.571 4.354 9.521 9.513 10.808 2.375.617 4.571.304 6.004-.813 1.15-.9 1.754-2.283 1.754-3.988 0-4.625-4.342-9.575-9.492-10.817-.771-.179-1.521-.275-2.242-.275m6.288 23.463c-1.329 0-2.7-.171-4.083-.521-8.413-2.1-15.008-9.946-15.008-17.858 0-3.908 1.6-7.325 4.496-9.617 3.217-2.533 7.696-3.35 12.246-2.25 8.454 2.025 15.071 9.879 15.071 17.875 0 3.975-1.621 7.421-4.554 9.713-2.242 1.75-5.104 2.658-8.167 2.658" class="B C"/><path d="M700.54 1202.394c.001 6.487-5.491 10.333-12.268 8.595s-12.27-8.335-12.268-14.748c-.003-6.41 5.494-10.259 12.27-8.603s12.265 8.27 12.266 14.757" class="B D"/><path d="M685.205 1190.893c-1.458 0-2.754.388-3.729 1.142-1.204.95-1.833 2.408-1.833 4.204 0 4.763 4.363 9.908 9.538 11.233 2.3.608 4.446.296 5.858-.804 1.221-.954 1.867-2.429 1.867-4.275 0-4.817-4.354-9.958-9.504-11.229a9.35 9.35 0 0 0-2.196-.271m6.217 24.142a16.19 16.19 0 0 1-4.046-.521c-8.417-2.158-15.004-10.192-15.004-18.275 0-4.046 1.638-7.579 4.617-9.917 3.204-2.508 7.608-3.313 12.146-2.217 8.433 2.075 15.038 10.108 15.038 18.288 0 4.117-1.658 7.675-4.675 10.013-2.233 1.729-5.042 2.629-8.075 2.629m-169.986-25.313c-3.767-1.004-6.838.842-6.838 4.129s3.071 6.804 6.838 7.833 6.829-.825 6.829-4.133-3.063-6.821-6.829-7.829m0-28.404c-3.767-.954-6.838.946-6.838 4.233s3.071 6.75 6.838 7.725 6.829-.921 6.829-4.233-3.063-6.771-6.829-7.725m0-28.413c-3.767-.9-6.838 1.042-6.838 4.329s3.071 6.704 6.838 7.625 6.829-1.021 6.829-4.333-3.063-6.725-6.829-7.621m0-56.817c-3.767-.783-6.838 1.246-6.838 4.533s3.071 6.617 6.838 7.425 6.829-1.225 6.829-4.538-3.063-6.638-6.829-7.421m0-28.411c-3.767-.733-6.838 1.346-6.838 4.633s3.071 6.575 6.838 7.329 6.829-1.333 6.829-4.642-3.063-6.592-6.829-7.321m30.412 177.238c-3.767-1.058-6.829.792-6.829 4.129s3.063 6.933 6.829 8.017 6.829-.767 6.829-4.129-3.063-6.954-6.829-8.017m32.446 9.134c-3.767-1.063-6.829.833-6.829 4.233 0 3.392 3.063 7.029 6.829 8.117s6.829-.813 6.829-4.238c0-3.417-3.063-7.054-6.829-8.113m64.888 18.255c-3.767-1.058-6.829.929-6.829 4.433s3.063 7.238 6.829 8.325c3.767 1.079 6.829-.908 6.829-4.438s-3.063-7.258-6.829-8.321m32.45 9.13c-3.767-1.063-6.838.967-6.838 4.533s3.071 7.342 6.838 8.421 6.829-.946 6.829-4.533-3.063-7.358-6.829-8.421m32.437 9.129c-3.767-1.058-6.829 1.017-6.829 4.633s3.063 7.438 6.829 8.525 6.829-.996 6.829-4.638-3.058-7.458-6.829-8.521m-192.633-166.065c-3.767-.838-6.838 1.15-6.838 4.438s3.071 6.663 6.838 7.525 6.829-1.121 6.829-4.429-3.063-6.692-6.829-7.533m95.3 138.678c-3.767-1.063-6.829.883-6.829 4.333s3.063 7.133 6.829 8.217 6.838-.854 6.838-4.329-3.071-7.163-6.838-8.221" class="C B"/><path d="M1013.18 531.362l-263.619 15.853.003-258.265 263.615-47.556.001 289.968z" class="B G"/><path d="M754.405 293v249.071l253.929-15.271V247.192L754.405 293zm-9.688 259.359V284.9l273.313-49.3v300.325l-273.313 16.433z" class="B E"/><path d="M790.121 509.134c-.892 0-1.788-.242-2.592-.754-2.263-1.433-2.933-4.429-1.496-6.692l40.504-64.967.8-1.283 1.371-.613 60.217-27.371 59.438-49.346 31.192-71.904c1.071-2.471 3.917-3.604 6.371-2.542 2.458 1.054 3.592 3.9 2.546 6.363l-31.688 73.008-1.304 1.742-60.913 50.583-1.025.633-59.525 27.075-39.808 63.817c-.917 1.454-2.488 2.25-4.088 2.25" class="B F"/><path d="M842.916 439.323c.004 6.93-5.491 13.092-12.265 13.771s-12.269-4.325-12.269-11.175 5.495-13.013 12.27-13.767 12.265 4.25 12.264 11.172" class="B G"/><path d="M831.984 431.705a8.08 8.08 0 0 0-.942.054c-4.888.55-9.029 5.2-9.029 10.163 0 2.283.863 4.325 2.425 5.742 1.546 1.396 3.579 2.025 5.85 1.817 4.958-.5 8.992-5.05 8.992-10.154 0-2.342-.871-4.413-2.454-5.825-1.304-1.171-3-1.796-4.842-1.796m-2.583 25.088c-3.696 0-7.138-1.3-9.833-3.742-3.108-2.804-4.821-6.763-4.821-11.129 0-8.633 6.958-16.429 15.496-17.388 4.296-.454 8.346.779 11.429 3.55 3.142 2.813 4.875 6.804 4.875 11.242 0 8.729-6.975 16.525-15.538 17.383-.542.058-1.079.083-1.608.083" class="B F"/><path d="M903.782 410.179c-.003 7.118-5.495 13.491-12.267 14.237s-12.273-4.356-12.274-11.399c0-7.034 5.496-13.408 12.272-14.229s12.268 4.277 12.269 11.391" class="B G"/><path d="M892.922 402.338a7.79 7.79 0 0 0-.975.058c-4.921.596-9.075 5.458-9.075 10.621 0 2.433.9 4.583 2.525 6.038 1.517 1.363 3.521 2.004 5.717 1.746 4.892-.538 9.029-5.4 9.029-10.617 0-2.488-.908-4.667-2.554-6.125-1.271-1.125-2.896-1.721-4.667-1.721m-2.733 25.783c-3.604 0-6.975-1.267-9.638-3.65-3.188-2.858-4.946-6.925-4.946-11.454 0-8.804 6.933-16.808 15.471-17.833 4.288-.517 8.254.708 11.338 3.433 3.171 2.817 5 7.033 5 11.567 0 8.9-6.958 16.9-15.504 17.842-.579.063-1.158.096-1.721.096" class="B F"/><path d="M964.154 359.412c0 7.302-5.493 13.929-12.267 14.796-6.777.876-12.273-4.277-12.272-11.504s5.495-13.849 12.271-14.792c6.775-.951 12.268 4.202 12.267 11.5" class="B G"/><g class="F B"><path d="M953.463 351.434c-.363 0-.721.025-1.079.075-4.95.692-9.133 5.821-9.133 11.196 0 2.575.925 4.804 2.613 6.283 1.496 1.308 3.433 1.875 5.554 1.617 4.929-.633 9.104-5.758 9.104-11.192 0-2.625-.933-4.883-2.633-6.358-1.217-1.063-2.763-1.621-4.425-1.621m-3.075 26.508c-3.475 0-6.733-1.213-9.338-3.496-3.225-2.833-5.067-7.117-5.067-11.742 0-9.108 6.767-17.183 15.396-18.396 4.154-.592 8.188.571 11.279 3.258 3.258 2.838 5.129 7.158 5.129 11.846 0 9.204-6.783 17.288-15.446 18.404-.663.083-1.313.125-1.954.125m-165.333 94.705c-3.767.35-6.838 3.675-6.838 7.417s3.071 6.517 6.838 6.192 6.829-3.663 6.829-7.425-3.063-6.533-6.829-6.183"/><path d="M785.055 440.338c-3.767.408-6.838 3.775-6.838 7.517s3.071 6.467 6.838 6.083 6.829-3.754 6.829-7.517-3.063-6.492-6.829-6.083m0-32.317c-3.767.463-6.838 3.879-6.838 7.621s3.071 6.417 6.838 5.979 6.829-3.854 6.829-7.617-3.063-6.446-6.829-5.983m0-64.621c-3.767.575-6.838 4.079-6.838 7.821s3.071 6.329 6.838 5.779 6.829-4.054 6.829-7.821-3.063-6.354-6.829-5.779m0-32.314c-3.767.629-6.838 4.179-6.838 7.921s3.071 6.292 6.838 5.688 6.829-4.167 6.829-7.929-3.063-6.308-6.829-5.679m30.408 189.434c-3.767.3-6.829 3.625-6.829 7.417s3.063 6.646 6.829 6.375c3.767-.279 6.829-3.6 6.829-7.417s-3.063-6.675-6.829-6.375m32.446-2.575c-3.767.3-6.829 3.667-6.829 7.517s3.063 6.75 6.829 6.471c3.767-.271 6.829-3.642 6.829-7.513s-3.063-6.775-6.829-6.475m64.896-5.158c-3.767.3-6.829 3.758-6.829 7.721s3.063 6.95 6.829 6.675 6.829-3.733 6.829-7.717-3.063-6.979-6.829-6.679m32.446-2.575c-3.767.3-6.838 3.804-6.838 7.821s3.071 7.05 6.838 6.775 6.829-3.779 6.829-7.821-3.063-7.075-6.829-6.775m32.441-2.579c-3.771.3-6.829 3.85-6.829 7.921s3.058 7.154 6.829 6.879 6.829-3.825 6.829-7.921-3.063-7.179-6.829-6.879"/><path d="M785.055 375.708c-3.767.521-6.838 3.988-6.838 7.725s3.071 6.375 6.838 5.883c3.767-.5 6.829-3.958 6.829-7.721s-3.063-6.408-6.829-5.888m95.3 119.66c-3.767.3-6.829 3.713-6.829 7.617s3.063 6.854 6.829 6.575 6.838-3.688 6.838-7.617-3.071-6.875-6.838-6.575M263.616 978.922h29.022v15.096h.387c3.098-5.808 6.774-10.158 11.032-13.063s9.61-4.354 16.06-4.354a65.5 65.5 0 0 1 5.028.196c1.676.129 3.227.388 4.645.771v26.508a43.98 43.98 0 0 0-6.094-1.45 39.69 39.69 0 0 0-6.289-.483c-5.547 0-9.931.775-13.157 2.321s-5.708 3.708-7.45 6.483-2.868 6.096-3.387 9.963-.774 8.129-.774 12.771v39.279h-29.022v-94.038zm164.274 77.783c-4.645 5.933-10.516 10.513-17.61 13.738s-14.446 4.838-22.056 4.838c-7.223 0-14.028-1.158-20.412-3.483s-11.934-5.642-16.642-9.963-8.415-9.513-11.126-15.575-4.063-12.838-4.063-20.317 1.355-14.254 4.063-20.317 6.418-11.254 11.126-15.575 10.255-7.646 16.642-9.967 13.189-3.483 20.412-3.483c6.708 0 12.802 1.163 18.286 3.483s10.126 5.646 13.931 9.967 6.739 9.513 8.802 15.575 3.098 12.833 3.098 20.317v9.092h-67.337c1.164 5.55 3.68 9.967 7.547 13.254s8.641 4.933 14.318 4.933c4.774 0 8.805-1.063 12.094-3.192s6.16-4.867 8.61-8.221l20.318 14.896zm-24.576-41.404c.129-4.904-1.481-9.096-4.836-12.579s-7.676-5.225-12.962-5.225c-3.227 0-6.063.517-8.516 1.55s-4.547 2.354-6.286 3.967a17.4 17.4 0 0 0-4.066 5.613 18.49 18.49 0 0 0-1.645 6.675h38.311zm47.019-88.621h29.022v146.279h-29.022zm50.308 0h29.022v146.279h-29.022zm50.309 52.242h29.022v94.038H550.95v-94.038zm-2.324-29.6c0-4.646 1.645-8.613 4.934-11.9s7.258-4.938 11.899-4.938 8.61 1.646 11.899 4.938 4.934 7.254 4.934 11.9-1.645 8.608-4.934 11.896-7.255 4.938-11.899 4.938-8.61-1.646-11.899-4.938-4.934-7.254-4.934-11.896zm105.452 57.271c-4.258-5.288-9.868-7.933-16.833-7.933-2.453 0-4.836.579-7.161 1.742s-3.481 3.163-3.481 6c0 2.321 1.192 4.029 3.579 5.125s5.418 2.067 9.094 2.904l11.802 2.708c4.192.967 8.126 2.483 11.802 4.546s6.708 4.871 9.094 8.417 3.582 8.288 3.582 14.221c0 6.063-1.324 11.063-3.969 14.996s-6.028 7.096-10.157 9.483-8.77 4.063-13.931 5.029-10.255 1.45-15.286 1.45c-6.579 0-13.223-.933-19.931-2.804s-12.38-5.192-17.025-9.967l17.607-19.542c2.707 3.354 5.708 5.904 8.997 7.646s7.126 2.608 11.513 2.608c3.356 0 6.387-.483 9.094-1.45s4.063-2.742 4.063-5.321c0-2.45-1.192-4.288-3.579-5.513s-5.418-2.258-9.094-3.096l-11.802-2.708c-4.192-.971-8.129-2.421-11.805-4.354s-6.708-4.679-9.094-8.225-3.579-8.288-3.579-14.221c0-5.546 1.129-10.321 3.387-14.317s5.223-7.292 8.899-9.871 7.903-4.483 12.676-5.708 9.607-1.838 14.509-1.838c6.192 0 12.45.904 18.771 2.708s11.673 5.033 16.06 9.675l-17.802 17.608zm100.035 2.708c-1.422-2.063-3.418-3.771-6-5.125s-5.352-2.033-8.317-2.033c-7.356 0-13.063 2.192-17.126 6.579s-6.094 10.125-6.094 17.221 2.031 12.833 6.094 17.221 9.77 6.579 17.126 6.579c3.223 0 5.997-.713 8.317-2.129s4.321-3.096 6-5.033l19.154 20.125c-4.516 4.642-9.837 7.9-15.962 9.771s-11.966 2.804-17.509 2.804c-7.227 0-14.028-1.158-20.415-3.483s-11.931-5.642-16.638-9.963-8.418-9.513-11.126-15.575-4.066-12.838-4.066-20.317 1.355-14.254 4.066-20.317 6.415-11.254 11.126-15.575 10.255-7.646 16.638-9.967 13.189-3.483 20.415-3.483c5.544 0 11.384.938 17.509 2.808s11.446 5.125 15.962 9.771l-19.154 20.121zm26.119 16.642c0-7.483 1.355-14.254 4.063-20.317s6.418-11.254 11.126-15.575 10.255-7.646 16.642-9.967 13.189-3.483 20.412-3.483 14.028 1.163 20.415 3.483 11.931 5.646 16.638 9.967 8.418 9.513 11.126 15.575 4.063 12.833 4.063 20.317-1.352 14.254-4.063 20.317-6.418 11.254-11.126 15.575-10.255 7.642-16.638 9.963-13.192 3.483-20.415 3.483-14.028-1.158-20.412-3.483-11.931-5.642-16.642-9.963-8.415-9.513-11.126-15.575-4.063-12.838-4.063-20.317zm29.025 0c0 7.092 2.031 12.833 6.094 17.221s9.77 6.579 17.123 6.579 13.063-2.196 17.126-6.579 6.094-10.129 6.094-17.221-2.031-12.838-6.094-17.221-9.774-6.579-17.126-6.579-13.06 2.192-17.123 6.579-6.094 10.125-6.094 17.221zm95.196-47.021h26.701v12.383h.387c1.164-1.675 2.68-3.383 4.547-5.125s4.066-3.321 6.579-4.742 5.258-2.579 8.223-3.483 6.129-1.354 9.481-1.354c6.965 0 13.286 1.196 18.962 3.579s10.547 5.742 14.61 10.063 7.192 9.45 9.384 15.383 3.289 12.446 3.289 19.542c0 6.579-1 12.867-3 18.867s-4.836 11.317-8.512 15.963-8.161 8.35-13.446 11.125-11.29 4.158-17.997 4.158c-6.063 0-11.704-.933-16.927-2.804s-9.516-5.063-12.868-9.579h-.387v54.179h-29.025V978.922zm26.701 47.021c0 7.092 2.031 12.833 6.098 17.221s9.77 6.579 17.123 6.579 13.06-2.196 17.123-6.579 6.098-10.129 6.098-17.221-2.035-12.838-6.098-17.221-9.77-6.579-17.123-6.579-13.06 2.192-17.123 6.579-6.098 10.125-6.098 17.221zm181.494 30.762c-4.641 5.933-10.513 10.513-17.607 13.738s-14.446 4.838-22.056 4.838c-7.223 0-14.028-1.158-20.415-3.483s-11.931-5.642-16.638-9.963-8.418-9.513-11.126-15.575-4.063-12.838-4.063-20.317 1.352-14.254 4.063-20.317 6.418-11.254 11.126-15.575 10.255-7.646 16.638-9.967 13.192-3.483 20.415-3.483c6.708 0 12.802 1.163 18.283 3.483s10.126 5.646 13.931 9.967 6.742 9.513 8.805 15.575 3.094 12.833 3.094 20.317v9.092h-67.333c1.16 5.55 3.676 9.967 7.547 13.254s8.641 4.933 14.318 4.933c4.774 0 8.805-1.063 12.094-3.192s6.157-4.867 8.61-8.221l20.314 14.896zm-24.572-41.404c.129-4.904-1.484-9.096-4.836-12.579s-7.676-5.225-12.966-5.225c-3.223 0-6.063.517-8.512 1.55s-4.547 2.354-6.289 3.967a17.39 17.39 0 0 0-4.063 5.613 18.41 18.41 0 0 0-1.645 6.675h38.311z"/></g><path d="M649.534 0L.017 374.996v750.001l649.517 375.004 649.513-375.004V374.996L649.534 0zM29.092 1108.209V391.784L649.534 33.571l620.438 358.213v716.426l-620.438 358.213-620.442-358.213z" class="B H"/><path d="M248.912 1002.143h-25.541v31.346c0 2.579.129 4.933.387 7.063s.836 3.967 1.742 5.513 2.289 2.742 4.157 3.579 4.356 1.258 7.45 1.258c1.551 0 3.582-.158 6.094-.483s4.418-1.063 5.711-2.225v24.188a44.09 44.09 0 0 1-10.063 2.321c-3.481.388-6.899.579-10.255.579-4.903 0-9.415-.513-13.544-1.546s-7.739-2.679-10.837-4.933-5.512-5.192-7.255-8.804-2.613-8-2.613-13.158v-44.696H175.77v-23.221h18.576v-27.863h29.025v27.863h25.541v23.221z" class="B F"/><path d="M217.483 584.058l-87.667 5.271 87.667-5.271h0z" class="H"/><path d="M227.174 769.212l-9.692-.583V584.058l9.692-.579v185.733z" class="E"/><g class="H"><path d="M60.949 759.216L.016 755.554v-.004l60.933 3.667zM.016 597.133h0l129.8-7.804-129.8 7.804zm217.467-22.784v.004L.016 587.428h0l217.467-13.079z"/><path d="M60.949 759.216l156.533 9.413v.004l-156.533-9.417zm156.534 203.613h0L.016 923.595h0l217.467 39.233zm-100.596-195.4L.016 760.404v-.004l116.871 7.029zM.016 592.283h0l116.867-7.029L.016 592.283z"/><path d="M222.333 578.912l-105.45 6.342 105.45-6.342h0zm0 194.858h0l-105.446-6.342 105.446 6.342zM.016 928.52l222.317 40.104v.004L.016 928.525v-.004zm1048.159-698.363l-30.146 5.442v-22.846l30.146 17.404zM481.1 106.341l-32.896 9.892L481.1 97.236v9.104zM227.175 378.257h0V243.841h0v134.417zm-9.688-128.821h-.004.004z"/><path d="M217.483 380.003h0V249.436h0v130.567z"/><path d="M227.175 243.841l-9.688 5.596 9.688-5.596zm263.621-130.296l-9.696 2.917v-10.121l9.696-2.917v10.121zM227.175 1170.008v86.146l-9.692-5.596 9.692 5.596v-86.146h0zm263.621 79.254v159.092h-.004v-159.096l.004.004z"/><path d="M217.483 1167.091v83.467h0v-83.471.004zm536.921 161.426v110.929h0v-110.929h0zm-3.354-11.134l-6.333-1.904h0l6.333 1.904z"/><path d="M754.404 1439.446l-9.688 5.596 9.688-5.596zm0-110.929L880.75 1366.5l11.533-6.658-65.017-19.546 65.017 19.546-11.538 6.658-126.342-37.983h0zm-3.354-11.134l-6.333-1.904 6.333 1.904z"/></g><path d="M751.05 1317.383l3.354 1.008v10.125l-9.688-2.913v-10.125l6.333 1.904z" class="E"/><path d="M222.333 384.057h-.004V246.636h.004v137.421z" class="H"/><path d="M222.329 246.636v137.421-137.421zm0 916.847h.004v89.863h-.004v-89.863z" class="E"/><path d="M749.559 1322h.004-.004z" class="H"/><g class="E"><path d="M485.946 1242.741v162.804h0v-162.804h0zM749.559 1322l136.967 41.175h0L749.563 1322h-.004z"/><path d="M749.563 1322v120.25l-.004.004V1322h.004z"/></g></svg>